<?xml version="1.0" encoding="UTF-8"?>
<svg id="Layer_2" data-name="Layer 2" xmlns="http://www.w3.org/2000/svg" viewBox="0 0 960 864">
  <defs>
    <style>
      .cls-1 {
        fill: #f7f7f9;
      }

      .cls-2 {
        fill: #e86a92;
      }
    </style>
  </defs>
  <g id="Layer_1-2" data-name="Layer 1">
    <g>
      <path class="cls-2" d="m807.25,400.92c36.6-36.48,56.76-85.2,56.76-136.92,0-92.64-75.36-168-168-168h0c-44.88,0-87.12,17.52-118.8,49.2l-97.2,97.2-97.2-97.2c-31.68-31.68-73.92-49.2-118.8-49.2-92.64,0-168,75.36-168,168,0,51.72,20.16,100.32,56.76,136.92l327.24,327.24,327.24-327.24Z"/>
      <path class="cls-1" d="m696.01,96c92.64,0,168,75.36,168,168,0,51.72-20.16,100.44-56.76,136.92l-327.24,327.24L152.77,400.92c-36.6-36.6-56.76-85.2-56.76-136.92,0-92.64,75.36-168,168-168,44.88,0,87.12,17.52,118.8,49.2l97.2,97.2,97.2-97.2c31.68-31.68,73.92-49.2,118.8-49.2M696,0C623.04,0,557.04,29.52,509.28,77.28l-29.28,29.28-29.28-29.28C402.96,29.52,336.96,0,264,0,118.2,0,0,118.2,0,264c0,76.8,30.48,150.48,84.84,204.84l395.16,395.16,395.16-395.16c54.36-54.36,84.84-128.04,84.84-204.84C960,118.2,841.8,0,696,0h0Z"/>
    </g>
  </g>
</svg>