<svg id="robot-scissors" xmlns="http://www.w3.org/2000/svg" width="67.526" height="71.671" viewBox="0 0 67.526 71.671">
  <g id="Group_6" data-name="Group 6" transform="translate(20.049 19.383)">
    <path id="Path_32" data-name="Path 32" d="M399.786,462.428a7.1,7.1,0,0,1,11.772-7.741.866.866,0,0,0,1.142.16l3.142-2.056a.865.865,0,0,0,.377-.9l-2.037-10.371a.537.537,0,0,0-.13-.3l-8.97-13.667a3.123,3.123,0,0,0-3.963-1.086l-24.8,12.2a3.114,3.114,0,0,0-1.42,4.155,2.447,2.447,0,0,0,.185.333l10.852,16.526a.848.848,0,0,0,.235.235l8.71,5.988a.867.867,0,0,0,.969.012l3.63-2.389a.866.866,0,0,0,.3-1.1Zm-4.4,1.722-6.871-4.729,6.179-4.05a.865.865,0,0,0,.247-1.2l-4.513-6.858a3.062,3.062,0,1,0-2.358,1.105,3.139,3.139,0,0,0,.9-.13l4.037,6.136-5.92,3.889-10.55-16.069a1.36,1.36,0,0,1,.389-1.9c.043-.031.1-.056.142-.086l9.865-4.846,3.037,4.63a.865.865,0,0,0,1.2.247l4.63-3.037a3.027,3.027,0,0,0,1.389.679,3.1,3.1,0,1,0-2.475-3.025,3.366,3.366,0,0,0,.13.914l-3.908,2.562-2.438-3.735,13.353-6.568a1.384,1.384,0,0,1,1.753.475l4.266,6.482-9.661,6.352a.865.865,0,0,0-.247,1.2l1.463,2.228a3.1,3.1,0,1,0,1.451-.951l-1-1.506,8.939-5.877,3.661,5.568,1.9,9.636-2.037,1.333a8.836,8.836,0,0,0-14.439,9.488Zm-8.655-19.143a1.361,1.361,0,0,1,1.333-1.086,1.471,1.471,0,0,1,.278.031,1.356,1.356,0,0,1,1.043,1.617,1.357,1.357,0,1,1-2.654-.562Zm10.346-11.285a1.368,1.368,0,1,1-.389,1.9,1.357,1.357,0,0,1,.389-1.9Zm3.963,11.933a1.376,1.376,0,0,1,.753-.235,1.38,1.38,0,1,1-.753.235Z" transform="translate(-373.724 -422.814)" fill="#f7f7f9"/>
    <path id="Path_33" data-name="Path 33" d="M796.9,864.494a6.077,6.077,0,0,0-2.519,11.89c.012,0,.043.012.056.012a6.022,6.022,0,0,0,1.247.13,6.078,6.078,0,0,0,1.216-12.032Zm1.148,9.593a4.346,4.346,0,1,1,1.247-6.019A4.353,4.353,0,0,1,798.046,874.087Z" transform="translate(-763.082 -833.967)" fill="#f7f7f9"/>
    <path id="Path_34" data-name="Path 34" d="M852.535,924.8a2.267,2.267,0,0,0-1.29.389,2.372,2.372,0,0,0-.679,3.272,2.4,2.4,0,0,0,1.488,1.012,2.519,2.519,0,0,0,.475.043,2.358,2.358,0,0,0,.006-4.716Zm.6,2.488a.622.622,0,1,1-.475-.741.614.614,0,0,1,.389.259.573.573,0,0,1,.086.482Z" transform="translate(-819.96 -890.674)" fill="#f7f7f9"/>
    <path id="Path_35" data-name="Path 35" d="M480.061,481.761a2.4,2.4,0,0,0,1.488,1.012,2.52,2.52,0,0,0,.475.043,2.358,2.358,0,0,0,0-4.716,2.267,2.267,0,0,0-1.29.389,2.379,2.379,0,0,0-.673,3.272Zm1.358-1.42a.625.625,0,0,1,.741-.475.614.614,0,0,1,.389.259.645.645,0,0,1,.086.463.625.625,0,0,1-.741.475.6.6,0,0,1-.475-.722Z" transform="translate(-472.328 -471.55)" fill="#f7f7f9"/>
    <path id="Path_36" data-name="Path 36" d="M593.8,422.566a2.363,2.363,0,1,0,1.84,2.79,2.415,2.415,0,0,0-.333-1.778,2.327,2.327,0,0,0-1.506-1.012Zm.13,2.426a.622.622,0,1,1-.475-.741.614.614,0,0,1,.389.259.706.706,0,0,1,.086.482Z" transform="translate(-576.74 -419.399)" fill="#f7f7f9"/>
    <path id="Path_37" data-name="Path 37" d="M699.645,372.386a2.372,2.372,0,0,0-.679,3.272,2.4,2.4,0,0,0,1.488,1.012,2.522,2.522,0,0,0,.475.043,2.358,2.358,0,1,0,0-4.716,2.159,2.159,0,0,0-1.284.389ZM701.454,374a.628.628,0,1,1-.87-.173.555.555,0,0,1,.346-.1.615.615,0,0,1,.525.272Z" transform="translate(-677.719 -371.997)" fill="#f7f7f9"/>
    <path id="Path_38" data-name="Path 38" d="M464.232,924.766H464.2a1.991,1.991,0,1,0,.031,0Zm.1,2.432a.622.622,0,1,1-.611-.759.465.465,0,0,1,.13.012.634.634,0,0,1,.482.747Z" transform="translate(-455.14 -890.597)" fill="#f7f7f9"/>
    <path id="Path_39" data-name="Path 39" d="M363.456,536.166a2.363,2.363,0,1,0,1.84,2.79,2.415,2.415,0,0,0-.333-1.778,2.3,2.3,0,0,0-1.506-1.012Zm.13,2.432a.622.622,0,1,1-.611-.759.463.463,0,0,1,.13.012.634.634,0,0,1,.482.747Z" transform="translate(-360.617 -525.986)" fill="#f7f7f9"/>
    <path id="Path_40" data-name="Path 40" d="M784.154,891.657l-5.309-8.087a.865.865,0,0,0-1.2-.247l-1.142.753a.875.875,0,0,0-.3,1.111,7.1,7.1,0,0,1-11.772,7.741.866.866,0,0,0-1.142-.16l-1.012.667a.865.865,0,0,0-.247,1.2l5.309,8.087a2.636,2.636,0,0,0,3.648.753l12.414-8.161a2.651,2.651,0,0,0,.759-3.661Zm-1.71,2.2-12.408,8.161a.893.893,0,0,1-1.247-.259l-4.124-6.284a8.843,8.843,0,0,0,13.7-9.494l4.352,6.624a.916.916,0,0,1-.272,1.253Z" transform="translate(-737.109 -851.623)" fill="#f7f7f9"/>
  </g>
  <path id="Path_41" data-name="Path 41" d="M58.317,155.022l-4.537-6.093a2.36,2.36,0,0,0-2.5-.864l-.136.1-1.167-1.58a2.391,2.391,0,0,0-.117-2.648l-3.105-4.161a2.339,2.339,0,0,0-2.5-.864l-1.34-1.8a2.326,2.326,0,0,0,.142-.759,2.387,2.387,0,0,0-.852-1.877l-1.587-1.284a.308.308,0,0,0-.1-.068,3.058,3.058,0,0,0-4.216,1.019,3.165,3.165,0,0,0-.352,2.4c.019.043.019.074.037.111l.8,1.883a2.357,2.357,0,0,0,1.562,1.358,2.265,2.265,0,0,0,.759.086h.012l1.383,1.815a2.393,2.393,0,0,0,.117,2.648h0l3.087,4.118a2.339,2.339,0,0,0,2.5.864l1.21,1.63a2.346,2.346,0,0,0,.2,2.482l4.537,6.093a.866.866,0,0,0,1.216.173l4.772-3.562A.855.855,0,0,0,58.317,155.022Zm-9.562-5.068-1.074-1.432,1-.741,1.068,1.426ZM39.328,138.1a.639.639,0,0,1-.877-.123c-.031-.043-.049-.086-.08-.123l-.759-1.827a1.337,1.337,0,0,1,1.945-1.469l1.525,1.259a.63.63,0,0,1,.08.877.937.937,0,0,1-.111.111Zm2.42.377,1.025,1.37-.988.759-1.037-1.389Zm4.2,9.167a.624.624,0,0,1-.864-.123L42,143.4a.614.614,0,0,1,.123-.864l2.371-1.821a.692.692,0,0,1,.457-.13.583.583,0,0,1,.407.253L48.459,145a.624.624,0,0,1-.123.864Zm7.081,10.266-4.019-5.4a.624.624,0,0,1,.123-.864l2.4-1.784a.624.624,0,0,1,.864.123l4.019,5.4Z" transform="translate(-35.85 -128.058)" fill="#f7f7f9"/>
  <path id="Path_42" data-name="Path 42" d="M212.625,80.29l-3.136-4.778a2.623,2.623,0,0,0-2.031-1.173l-1.142-1.759a2.378,2.378,0,0,0,.043-2.648l-2.846-4.346a2.347,2.347,0,0,0-2.445-1.012L199.84,62.69a2.505,2.505,0,0,0,.191-.753,2.409,2.409,0,0,0-.735-1.926l-1.506-1.377a.3.3,0,0,0-.1-.074,3.055,3.055,0,0,0-4.272.765,3.133,3.133,0,0,0-.494,2.371.824.824,0,0,0,.031.117l.679,1.926a2.374,2.374,0,0,0,1.475,1.451,2.247,2.247,0,0,0,.753.13h.012l1.272,1.9a2.378,2.378,0,0,0-.043,2.648h0l2.833,4.3a2.347,2.347,0,0,0,2.445,1.012l1.185,1.809.019-.012a2.625,2.625,0,0,0,.3,2.185l3.136,4.79a.859.859,0,0,0,1.2.247l4.155-2.716A.845.845,0,0,0,212.625,80.29Zm-8.71-5.914,1.043-.679.772,1.167-1.043.679Zm-7.7-10.92a.649.649,0,0,1-.87-.173c-.031-.043-.043-.086-.074-.13l-.648-1.864a1.345,1.345,0,0,1,1.1-1.531,1.294,1.294,0,0,1,.926.191l1.445,1.346a.636.636,0,0,1,.031.883.62.62,0,0,1-.117.1Zm2.383.525.938,1.432-1.031.691-.951-1.451Zm3.642,9.408a.625.625,0,0,1-.852-.173l-2.833-4.3a.609.609,0,0,1,.173-.852l2.475-1.679a.652.652,0,0,1,.463-.1.576.576,0,0,1,.389.278l2.846,4.346a.625.625,0,0,1-.173.852Zm5.766,8.877-2.661-4.056a.836.836,0,0,1,.247-1.185h0l1.247-.821a.912.912,0,0,1,.475-.142.815.815,0,0,1,.173.012.887.887,0,0,1,.549.377l2.661,4.056Z" transform="translate(-183.176 -58.005)" fill="#f7f7f9"/>
  <path id="Path_43" data-name="Path 43" d="M489.913,254.9l2.945,5.747a.867.867,0,0,0,1.167.377l4.42-2.259a.867.867,0,0,0,.377-1.167l-2.945-5.747a2.611,2.611,0,0,0-3.5-1.136l-1.327.673a2.62,2.62,0,0,0-1.136,3.513Zm1.494-1.457a.878.878,0,0,1,.432-.506l1.327-.673a.872.872,0,0,1,1.167.377l2.549,4.976-2.864,1.463-2.549-4.976a.856.856,0,0,1-.062-.661Z" transform="translate(-461.618 -238.552)" fill="#f7f7f9"/>
  <path id="Path_44" data-name="Path 44" d="M630.172,228.288a.871.871,0,0,0,1.105.537l4.7-1.611a.871.871,0,0,0,.537-1.1L635,221.689a2.609,2.609,0,0,0-3.3-1.617l-1.407.475a2.609,2.609,0,0,0-1.617,3.3Zm.673-6.087,1.407-.475a.915.915,0,0,1,.5-.025.88.88,0,0,1,.167.056.855.855,0,0,1,.438.5l1.235,3.587-3.043,1.043-1.235-3.587a.848.848,0,0,1,.531-1.1Z" transform="translate(-591.944 -209.935)" fill="#f7f7f9"/>
  <path id="Path_45" data-name="Path 45" d="M211.85,713.765l-1.957-1.889a2.584,2.584,0,0,0-2.729-.556l-1.8-1.735.432-.444a.876.876,0,0,0-.025-1.235l-2.506-2.42a6.832,6.832,0,0,0-9.655.167.876.876,0,0,0,.025,1.235l6.8,6.55a.872.872,0,0,0,1.222-.012l.432-.444,1.8,1.735a2.589,2.589,0,0,0,.654,2.7l1.957,1.889a.876.876,0,0,0,1.235-.025l4.13-4.29a.846.846,0,0,0-.012-1.228Zm-10.828-2.173-5.488-5.3a5.1,5.1,0,0,1,6.544.451l1.877,1.821Zm3.9,1.691-1.617-1.556.858-.9,1.617,1.556Zm2.179,4.167-1.327-1.284a.893.893,0,0,1-.025-1.235l1.728-1.784a.893.893,0,0,1,1.235-.025l1.327,1.284Z" transform="translate(-183.648 -663.719)" fill="#f7f7f9"/>
</svg>
