<svg id="robot-rock" xmlns="http://www.w3.org/2000/svg" width="54.604" height="61.675" viewBox="0 0 54.604 61.675">
  <g id="Group_5" data-name="Group 5" transform="translate(7.127 9.387)">
    <path id="Path_18" data-name="Path 18" d="M399.786,462.428a7.1,7.1,0,0,1,11.772-7.741.866.866,0,0,0,1.142.16l3.142-2.056a.865.865,0,0,0,.377-.9l-2.037-10.371a.537.537,0,0,0-.13-.3l-8.97-13.667a3.123,3.123,0,0,0-3.963-1.086l-24.8,12.2a3.114,3.114,0,0,0-1.42,4.155,2.447,2.447,0,0,0,.185.333l10.852,16.526a.848.848,0,0,0,.235.235l8.71,5.988a.867.867,0,0,0,.969.012l3.63-2.389a.866.866,0,0,0,.3-1.1Zm-4.4,1.722-6.871-4.729,6.179-4.05a.865.865,0,0,0,.247-1.2l-4.513-6.858a3.062,3.062,0,1,0-2.358,1.105,3.139,3.139,0,0,0,.9-.13l4.037,6.136-5.92,3.889-10.55-16.069a1.36,1.36,0,0,1,.389-1.9c.043-.031.1-.056.142-.086l9.865-4.846,3.037,4.63a.865.865,0,0,0,1.2.247l4.63-3.037a3.027,3.027,0,0,0,1.389.679,3.1,3.1,0,1,0-2.475-3.025,3.366,3.366,0,0,0,.13.914l-3.908,2.562-2.438-3.735,13.353-6.568a1.384,1.384,0,0,1,1.753.475l4.266,6.482-9.661,6.352a.865.865,0,0,0-.247,1.2l1.463,2.228a3.1,3.1,0,1,0,1.451-.951l-1-1.506,8.939-5.877,3.661,5.568,1.9,9.636-2.037,1.333a8.836,8.836,0,0,0-14.439,9.488Zm-8.655-19.143a1.361,1.361,0,0,1,1.333-1.086,1.471,1.471,0,0,1,.278.031,1.356,1.356,0,0,1,1.043,1.617,1.357,1.357,0,1,1-2.654-.562Zm10.346-11.285a1.368,1.368,0,1,1-.389,1.9,1.357,1.357,0,0,1,.389-1.9Zm3.963,11.933a1.376,1.376,0,0,1,.753-.235,1.38,1.38,0,1,1-.753.235Z" transform="translate(-373.724 -422.814)" fill="#f7f7f9"/>
    <path id="Path_19" data-name="Path 19" d="M796.9,864.494a6.077,6.077,0,0,0-2.519,11.89c.012,0,.043.012.056.012a6.022,6.022,0,0,0,1.247.13,6.078,6.078,0,0,0,1.216-12.032Zm1.148,9.593a4.346,4.346,0,1,1,1.247-6.019A4.353,4.353,0,0,1,798.046,874.087Z" transform="translate(-763.082 -833.967)" fill="#f7f7f9"/>
    <path id="Path_20" data-name="Path 20" d="M852.535,924.8a2.267,2.267,0,0,0-1.29.389,2.372,2.372,0,0,0-.679,3.272,2.4,2.4,0,0,0,1.488,1.012,2.519,2.519,0,0,0,.475.043,2.358,2.358,0,0,0,.006-4.716Zm.6,2.488a.622.622,0,1,1-.475-.741.614.614,0,0,1,.389.259.573.573,0,0,1,.086.482Z" transform="translate(-819.96 -890.674)" fill="#f7f7f9"/>
    <path id="Path_21" data-name="Path 21" d="M480.061,481.761a2.4,2.4,0,0,0,1.488,1.012,2.52,2.52,0,0,0,.475.043,2.358,2.358,0,0,0,0-4.716,2.267,2.267,0,0,0-1.29.389,2.379,2.379,0,0,0-.673,3.272Zm1.358-1.42a.625.625,0,0,1,.741-.475.614.614,0,0,1,.389.259.645.645,0,0,1,.086.463.625.625,0,0,1-.741.475.6.6,0,0,1-.475-.722Z" transform="translate(-472.328 -471.55)" fill="#f7f7f9"/>
    <path id="Path_22" data-name="Path 22" d="M593.8,422.566a2.363,2.363,0,1,0,1.84,2.79,2.415,2.415,0,0,0-.333-1.778,2.327,2.327,0,0,0-1.506-1.012Zm.13,2.426a.622.622,0,1,1-.475-.741.614.614,0,0,1,.389.259.706.706,0,0,1,.086.482Z" transform="translate(-576.74 -419.399)" fill="#f7f7f9"/>
    <path id="Path_23" data-name="Path 23" d="M699.645,372.386a2.372,2.372,0,0,0-.679,3.272,2.4,2.4,0,0,0,1.488,1.012,2.522,2.522,0,0,0,.475.043,2.358,2.358,0,1,0,0-4.716,2.159,2.159,0,0,0-1.284.389ZM701.454,374a.628.628,0,1,1-.87-.173.555.555,0,0,1,.346-.1.615.615,0,0,1,.525.272Z" transform="translate(-677.719 -371.997)" fill="#f7f7f9"/>
    <path id="Path_24" data-name="Path 24" d="M464.232,924.766H464.2a1.991,1.991,0,1,0,.031,0Zm.1,2.432a.622.622,0,1,1-.611-.759.465.465,0,0,1,.13.012.634.634,0,0,1,.482.747Z" transform="translate(-455.14 -890.597)" fill="#f7f7f9"/>
    <path id="Path_25" data-name="Path 25" d="M363.456,536.166a2.363,2.363,0,1,0,1.84,2.79,2.415,2.415,0,0,0-.333-1.778,2.3,2.3,0,0,0-1.506-1.012Zm.13,2.432a.622.622,0,1,1-.611-.759.463.463,0,0,1,.13.012.634.634,0,0,1,.482.747Z" transform="translate(-360.617 -525.986)" fill="#f7f7f9"/>
    <path id="Path_26" data-name="Path 26" d="M784.154,891.657l-5.309-8.087a.865.865,0,0,0-1.2-.247l-1.142.753a.875.875,0,0,0-.3,1.111,7.1,7.1,0,0,1-11.772,7.741.866.866,0,0,0-1.142-.16l-1.012.667a.865.865,0,0,0-.247,1.2l5.309,8.087a2.636,2.636,0,0,0,3.648.753l12.414-8.161a2.651,2.651,0,0,0,.759-3.661Zm-1.71,2.2-12.408,8.161a.893.893,0,0,1-1.247-.259l-4.124-6.284a8.843,8.843,0,0,0,13.7-9.494l4.352,6.624a.916.916,0,0,1-.272,1.253Z" transform="translate(-737.109 -851.623)" fill="#f7f7f9"/>
  </g>
  <path id="Path_27" data-name="Path 27" d="M246.017,402.3a2.137,2.137,0,0,0-.482,2.9c.018.025.037.056.056.08l3.229,4.284a.866.866,0,0,0,1.216.173l4.087-2.988a.866.866,0,0,0,.173-1.216l-3.229-4.284a2.371,2.371,0,0,0-2.321-.907.79.79,0,0,0-.321.142h0Zm1.019-.778-.309.173m2.963,6.142-2.71-3.593a.624.624,0,0,1,.123-.864l1.716-1.21a.624.624,0,0,1,.864.123l2.71,3.593Z" transform="translate(-245.17 -389.166)" fill="#f7f7f9"/>
  <path id="Path_28" data-name="Path 28" d="M365.789,326.268a2.394,2.394,0,0,0-.179,2.661c.019.031.037.056.056.086l3.136,4.79a.859.859,0,0,0,1.2.247l4.155-2.716a.859.859,0,0,0,.247-1.2l-3.136-4.778a.437.437,0,0,0-.062-.086,2.423,2.423,0,0,0-2.667-.877l-.7.21a2.354,2.354,0,0,0-.63.3l-.4.259a2.385,2.385,0,0,0-.6.562Zm3.994,5.846-2.661-4.056a.836.836,0,0,1,.247-1.185h0l1.247-.821a.912.912,0,0,1,.475-.142.814.814,0,0,1,.173.012.887.887,0,0,1,.549.377l2.661,4.056Z" transform="translate(-357.874 -317.85)" fill="#f7f7f9"/>
  <path id="Path_29" data-name="Path 29" d="M489.913,254.9l2.945,5.747a.867.867,0,0,0,1.167.377l4.42-2.259a.867.867,0,0,0,.377-1.167l-2.945-5.747a2.611,2.611,0,0,0-3.5-1.136l-1.327.673a2.62,2.62,0,0,0-1.136,3.513Zm1.494-1.457a.878.878,0,0,1,.432-.506l1.327-.673a.872.872,0,0,1,1.167.377l2.549,4.976-2.864,1.463-2.549-4.976a.856.856,0,0,1-.062-.661Z" transform="translate(-474.539 -248.548)" fill="#f7f7f9"/>
  <path id="Path_30" data-name="Path 30" d="M630.172,228.288a.871.871,0,0,0,1.105.537l4.7-1.611a.871.871,0,0,0,.537-1.1L635,221.689a2.609,2.609,0,0,0-3.3-1.617l-1.407.475a2.609,2.609,0,0,0-1.617,3.3Zm.673-6.087,1.407-.475a.915.915,0,0,1,.5-.025.88.88,0,0,1,.167.056.855.855,0,0,1,.438.5l1.235,3.587-3.043,1.043-1.235-3.587a.848.848,0,0,1,.531-1.1Z" transform="translate(-604.866 -219.931)" fill="#f7f7f9"/>
  <path id="Path_31" data-name="Path 31" d="M363.518,827.97l-.63.654a1.609,1.609,0,0,0-.185.222l-.71,1a1.931,1.931,0,0,0-.358,1.012,2.584,2.584,0,0,0,.79,2.006l1.957,1.889a.876.876,0,0,0,1.235-.025l4.13-4.29a.845.845,0,0,0-.012-1.222h0l-1.969-1.9a2.58,2.58,0,0,0-.9-.562,2.4,2.4,0,0,0-2.3.358l-.784.6A3.476,3.476,0,0,0,363.518,827.97Zm1.451,4.926-1.327-1.284a.893.893,0,0,1-.025-1.235l1.729-1.784a.893.893,0,0,1,1.235-.025l1.327,1.284Z" transform="translate(-354.441 -789.161)" fill="#f7f7f9"/>
</svg>
