<svg id="robot-paper" xmlns="http://www.w3.org/2000/svg" width="67.569" height="78.483" viewBox="0 0 67.569 78.483">
  <g id="Group_4" data-name="Group 4" transform="translate(5.756 26.196)">
    <path id="Path_4" data-name="Path 4" d="M436.486,565.122a7.1,7.1,0,0,1,11.772-7.741.866.866,0,0,0,1.142.16l3.142-2.056a.865.865,0,0,0,.377-.9l-2.037-10.371a.536.536,0,0,0-.13-.3l-8.97-13.661a3.123,3.123,0,0,0-3.963-1.086l-24.8,12.2a3.114,3.114,0,0,0-1.42,4.155,2.451,2.451,0,0,0,.185.333l10.852,16.526a.847.847,0,0,0,.235.234l8.71,5.988a.867.867,0,0,0,.969.012l3.63-2.389a.865.865,0,0,0,.3-1.105Zm-4.4,1.722-6.871-4.729,6.179-4.05a.865.865,0,0,0,.247-1.2L427.134,550a3.062,3.062,0,1,0-2.358,1.1,3.14,3.14,0,0,0,.9-.13l4.037,6.136L423.788,561l-10.55-16.063a1.36,1.36,0,0,1,.389-1.9c.043-.031.1-.056.142-.086l9.865-4.846,3.037,4.63a.865.865,0,0,0,1.2.247l4.63-3.037a3.027,3.027,0,0,0,1.389.679,3.1,3.1,0,1,0-2.475-3.025,3.365,3.365,0,0,0,.13.914l-3.908,2.562-2.445-3.735,13.359-6.574a1.384,1.384,0,0,1,1.753.475l4.266,6.482-9.661,6.352a.865.865,0,0,0-.247,1.2l1.463,2.229a3.1,3.1,0,1,0,1.451-.951l-1-1.506,8.939-5.877,3.661,5.568,1.9,9.636-2.037,1.333a8.836,8.836,0,0,0-14.439,9.488ZM423.436,547.7a1.361,1.361,0,0,1,1.333-1.086,1.474,1.474,0,0,1,.278.031,1.356,1.356,0,0,1,1.043,1.617,1.357,1.357,0,1,1-2.654-.562Zm10.346-11.285a1.368,1.368,0,1,1-.389,1.9,1.371,1.371,0,0,1,.389-1.9Zm3.963,11.939a1.376,1.376,0,0,1,.753-.235,1.38,1.38,0,1,1-.753.235Z" transform="translate(-396.089 -525.508)" fill="#f7f7f9"/>
    <path id="Path_5" data-name="Path 5" d="M833.7,967.094a6.077,6.077,0,0,0-2.519,11.89c.012,0,.043.012.056.012a6.019,6.019,0,0,0,1.247.13,6.078,6.078,0,0,0,1.216-12.032Zm1.142,9.593a4.346,4.346,0,1,1,1.247-6.019A4.353,4.353,0,0,1,834.84,976.687Z" transform="translate(-785.541 -936.567)" fill="#f7f7f9"/>
    <path id="Path_6" data-name="Path 6" d="M889.235,1027.5a2.267,2.267,0,0,0-1.29.389,2.372,2.372,0,0,0-.679,3.272,2.4,2.4,0,0,0,1.488,1.012,2.521,2.521,0,0,0,.475.043,2.358,2.358,0,0,0,.006-4.716Zm.6,2.488a.622.622,0,1,1-.475-.741.614.614,0,0,1,.389.259.567.567,0,0,1,.086.482Z" transform="translate(-842.325 -993.368)" fill="#f7f7f9"/>
    <path id="Path_7" data-name="Path 7" d="M516.761,584.461a2.4,2.4,0,0,0,1.488,1.012,2.519,2.519,0,0,0,.475.043,2.358,2.358,0,1,0,0-4.716,2.266,2.266,0,0,0-1.29.389,2.378,2.378,0,0,0-.673,3.272Zm1.358-1.42a.625.625,0,0,1,.741-.475.614.614,0,0,1,.389.259.645.645,0,0,1,.086.463.625.625,0,0,1-.741.475.6.6,0,0,1-.475-.722Z" transform="translate(-494.692 -574.244)" fill="#f7f7f9"/>
    <path id="Path_8" data-name="Path 8" d="M630.5,525.166a2.363,2.363,0,1,0,1.84,2.79,2.415,2.415,0,0,0-.333-1.778,2.334,2.334,0,0,0-1.506-1.012Zm.136,2.432a.622.622,0,1,1-.475-.741.614.614,0,0,1,.389.259.736.736,0,0,1,.086.482Z" transform="translate(-599.104 -521.999)" fill="#f7f7f9"/>
    <path id="Path_9" data-name="Path 9" d="M736.345,474.989a2.372,2.372,0,0,0-.679,3.272,2.4,2.4,0,0,0,1.488,1.012,2.52,2.52,0,0,0,.475.043,2.358,2.358,0,0,0,0-4.716,2.262,2.262,0,0,0-1.284.389Zm1.809,1.624a.627.627,0,1,1-.87-.173.555.555,0,0,1,.346-.1.6.6,0,0,1,.525.272Z" transform="translate(-700.084 -474.6)" fill="#f7f7f9"/>
    <path id="Path_10" data-name="Path 10" d="M184.864,952.531l-2.661-.549a2.6,2.6,0,0,0-2.605.982l-2.445-.506.13-.6a.868.868,0,0,0-.679-1.025l-3.414-.71a6.83,6.83,0,0,0-8.075,5.3.868.868,0,0,0,.679,1.025l9.247,1.908a.87.87,0,0,0,1.025-.667l.13-.6,2.445.506a2.592,2.592,0,0,0,1.994,1.938l2.661.549a.869.869,0,0,0,1.025-.679l1.2-5.834a.84.84,0,0,0-.661-1.025Zm-10.315,3.951-7.463-1.549a5.087,5.087,0,0,1,5.772-3.111l2.562.537Zm4.2-.654-2.2-.451.247-1.216,2.2.451Zm4.062,2.358L181,957.809a.888.888,0,0,1-.679-1.025l.506-2.432a.888.888,0,0,1,1.025-.679l1.809.376Z" transform="translate(-165.097 -920.628)" fill="#f7f7f9"/>
    <path id="Path_11" data-name="Path 11" d="M500.9,1027.466h-.031a1.991,1.991,0,1,0,.031,0Zm.1,2.432a.622.622,0,1,1-.611-.759.467.467,0,0,1,.13.012.634.634,0,0,1,.482.747Z" transform="translate(-477.477 -993.291)" fill="#f7f7f9"/>
    <path id="Path_12" data-name="Path 12" d="M400.256,638.866a2.363,2.363,0,1,0,1.84,2.79,2.415,2.415,0,0,0-.333-1.778,2.3,2.3,0,0,0-1.506-1.012Zm.13,2.432a.622.622,0,1,1-.611-.759.463.463,0,0,1,.13.012.644.644,0,0,1,.482.747Z" transform="translate(-383.076 -628.68)" fill="#f7f7f9"/>
    <path id="Path_13" data-name="Path 13" d="M820.854,994.256l-5.309-8.087a.865.865,0,0,0-1.2-.247l-1.142.753a.875.875,0,0,0-.3,1.111,7.1,7.1,0,0,1-11.772,7.741.866.866,0,0,0-1.142-.16l-1.012.667a.865.865,0,0,0-.247,1.2l5.309,8.087a2.636,2.636,0,0,0,3.648.753l12.414-8.161a2.649,2.649,0,0,0,.759-3.661Zm-1.7,2.2-12.414,8.161a.893.893,0,0,1-1.247-.259l-4.124-6.278a8.843,8.843,0,0,0,13.7-9.494l4.352,6.624a.907.907,0,0,1-.265,1.247Z" transform="translate(-759.473 -954.223)" fill="#f7f7f9"/>
  </g>
  <path id="Path_14" data-name="Path 14" d="M94.317,249.922l-4.537-6.093a2.36,2.36,0,0,0-2.5-.864l-.136.1-1.167-1.58a2.391,2.391,0,0,0-.117-2.648l-3.105-4.161a2.339,2.339,0,0,0-2.5-.864l-1.34-1.8a2.326,2.326,0,0,0,.142-.759,2.387,2.387,0,0,0-.852-1.877l-1.587-1.284a.308.308,0,0,0-.1-.068,3.058,3.058,0,0,0-4.216,1.019,3.165,3.165,0,0,0-.352,2.4c.019.043.019.074.037.111l.8,1.883a2.357,2.357,0,0,0,1.562,1.358,2.265,2.265,0,0,0,.759.086h.012l1.383,1.815a2.392,2.392,0,0,0,.117,2.648h0l3.087,4.118a2.339,2.339,0,0,0,2.5.864l1.21,1.63a2.346,2.346,0,0,0,.2,2.482l4.537,6.093a.866.866,0,0,0,1.216.173l4.772-3.562A.855.855,0,0,0,94.317,249.922Zm-9.562-5.068-1.074-1.432,1-.741,1.068,1.426ZM75.335,233a.639.639,0,0,1-.877-.123c-.031-.043-.049-.086-.08-.123l-.759-1.821a1.337,1.337,0,0,1,1.945-1.469l1.525,1.259a.63.63,0,0,1,.08.877.938.938,0,0,1-.111.111Zm2.414.377,1.025,1.37-.988.759-1.037-1.389Zm4.2,9.167a.624.624,0,0,1-.864-.123L78,238.3a.614.614,0,0,1,.123-.864l2.371-1.821a.692.692,0,0,1,.457-.13.583.583,0,0,1,.407.253l3.105,4.161a.624.624,0,0,1-.123.864Zm7.074,10.266-4.019-5.4a.624.624,0,0,1,.123-.864l2.4-1.784a.624.624,0,0,1,.864.123l4.019,5.4Z" transform="translate(-71.85 -216.621)" fill="#f7f7f9"/>
  <path id="Path_15" data-name="Path 15" d="M552.7,73.153l-1.963-4.241a2.605,2.605,0,0,0-1.963-1.475l-.562-1.228a2.384,2.384,0,0,0,.432-2.611l-2.185-4.71a2.342,2.342,0,0,0-2.272-1.358l-.932-2.043a2.257,2.257,0,0,0,.3-.716,2.393,2.393,0,0,0-.451-2.012l-1.284-1.58a.251.251,0,0,0-.093-.086,3.053,3.053,0,0,0-4.334.136,3.138,3.138,0,0,0-.833,2.278c.006.043.006.074.012.117l.389,2.006a2.358,2.358,0,0,0,1.247,1.648,2.168,2.168,0,0,0,.722.241h.012l.982,2.062a2.38,2.38,0,0,0-.432,2.611h0l2.173,4.667a2.342,2.342,0,0,0,2.272,1.358l.673,1.457a2.6,2.6,0,0,0,.049,2.049l1.957,4.253a.865.865,0,0,0,1.154.42l4.506-2.08A.865.865,0,0,0,552.7,73.153Zm-6.815-4.864-.309-.654,1.13-.519.309.654-1.074.494A.22.22,0,0,0,545.881,68.288Zm-6.34-12.581a.644.644,0,0,1-.833-.3c-.025-.049-.031-.093-.056-.142l-.37-1.945a1.353,1.353,0,0,1,1.315-1.358,1.315,1.315,0,0,1,.889.321l1.235,1.543a.633.633,0,0,1-.1.877.517.517,0,0,1-.13.08Zm2.29.864.722,1.556-1.117.537L540.7,57.09Zm2.229,9.84a.63.63,0,0,1-.821-.3l-2.173-4.667a.613.613,0,0,1,.3-.821l2.692-1.3a.668.668,0,0,1,.475-.031.566.566,0,0,1,.346.327l2.185,4.71a.63.63,0,0,1-.3.821Zm3.784,8.025L546.245,71a.857.857,0,0,1,.42-1.154h0l1.352-.617a.959.959,0,0,1,.494-.074.728.728,0,0,1,.167.037.855.855,0,0,1,.488.451l1.6,3.438Z" transform="translate(-507.863 -50.253)" fill="#f7f7f9"/>
  <path id="Path_16" data-name="Path 16" d="M396.3,94.468l-2.982-5.729a2.619,2.619,0,0,0-2.074-1.389l-.9-1.741a2.375,2.375,0,0,0,.309-2.63l-2.4-4.605a2.354,2.354,0,0,0-2.333-1.253l-1.031-1.994a2.362,2.362,0,0,0-.278-2.716l-1.358-1.519a.237.237,0,0,0-.093-.08,3.052,3.052,0,0,0-4.321.333,3.144,3.144,0,0,0-.728,2.309c.012.043.006.074.018.117l.482,1.982a2.355,2.355,0,0,0,1.321,1.587,2.172,2.172,0,0,0,.735.2h.012l1.074,2.012a2.384,2.384,0,0,0-.309,2.63h0l2.389,4.562a2.353,2.353,0,0,0,2.333,1.253l1,1.92.1-.056a2.64,2.64,0,0,0,.1,2.167h0l2.982,5.729a.859.859,0,0,0,1.173.364l4.408-2.29A.862.862,0,0,0,396.3,94.468Zm-7.809-6.155a.617.617,0,0,0-.086.049l-.63-1.2,1.105-.574.63,1.2ZM381.2,75.523a.639.639,0,0,1-.846-.259c-.025-.043-.037-.093-.062-.136l-.457-1.92a1.349,1.349,0,0,1,1.247-1.414,1.32,1.32,0,0,1,.9.278l1.3,1.482a.632.632,0,0,1-.062.883,1.065,1.065,0,0,1-.123.086Zm2.321.759.79,1.519-1.093.586-.8-1.537ZM386.2,86a.624.624,0,0,1-.833-.259l-2.389-4.562a.608.608,0,0,1,.259-.833l2.63-1.42a.66.66,0,0,1,.469-.056.565.565,0,0,1,.358.315l2.4,4.605a.624.624,0,0,1-.259.833Zm5.3,9.982-2.58-4.957a.858.858,0,0,1-.062-.661h0a.839.839,0,0,1,.432-.506l1.321-.679a.882.882,0,0,1,1.173.364l2.58,4.957Z" transform="translate(-359.194 -68.846)" fill="#f7f7f9"/>
  <path id="Path_17" data-name="Path 17" d="M248.725,175.19l-3.136-4.778a2.623,2.623,0,0,0-2.031-1.173l-1.142-1.759a2.378,2.378,0,0,0,.043-2.648l-2.846-4.346a2.347,2.347,0,0,0-2.445-1.012l-1.228-1.883a2.505,2.505,0,0,0,.191-.753,2.409,2.409,0,0,0-.735-1.926l-1.506-1.377a.3.3,0,0,0-.1-.074,3.055,3.055,0,0,0-4.272.765,3.133,3.133,0,0,0-.494,2.371.821.821,0,0,0,.031.117l.679,1.926a2.374,2.374,0,0,0,1.475,1.451,2.247,2.247,0,0,0,.753.13h.012l1.272,1.9a2.378,2.378,0,0,0-.043,2.648h0l2.833,4.3a2.347,2.347,0,0,0,2.445,1.012l1.185,1.809.019-.012a2.625,2.625,0,0,0,.3,2.185l3.136,4.79a.859.859,0,0,0,1.2.247l4.155-2.716A.856.856,0,0,0,248.725,175.19Zm-8.71-5.914,1.043-.679.772,1.167-1.043.679Zm-7.7-10.92a.649.649,0,0,1-.87-.173c-.031-.043-.043-.086-.074-.13l-.642-1.87a1.345,1.345,0,0,1,1.1-1.531,1.294,1.294,0,0,1,.926.191l1.445,1.346a.636.636,0,0,1,.031.883.62.62,0,0,1-.117.1Zm2.389.525.938,1.432-1.031.691-.951-1.451Zm3.636,9.408a.625.625,0,0,1-.852-.173l-2.833-4.3a.609.609,0,0,1,.173-.852l2.475-1.679a.652.652,0,0,1,.463-.1.576.576,0,0,1,.389.278L241,165.807a.625.625,0,0,1-.173.852Zm5.772,8.877-2.661-4.056a.836.836,0,0,1,.247-1.185h0l1.247-.821a.912.912,0,0,1,.475-.142.814.814,0,0,1,.173.012.887.887,0,0,1,.549.377l2.661,4.056Z" transform="translate(-219.269 -146.568)" fill="#f7f7f9"/>
</svg>
