<?xml version="1.0" encoding="utf-8"?>
<!-- Generator: Adobe Illustrator 27.1.1, SVG Export Plug-In . SVG Version: 6.00 Build 0)  -->
<svg version="1.1" id="Layer_1" xmlns="http://www.w3.org/2000/svg" xmlns:xlink="http://www.w3.org/1999/xlink" x="0px" y="0px"
	 viewBox="0 0 1200 1340" style="enable-background:new 0 0 1200 1340;" xml:space="preserve">
<g>
	<path d="M819.5,1116.3c-27.9-57-4.5-126.1,52.7-154c47.1-23.2,104.1-11.2,138,28.6c4.7,5.4,12.4,6.6,18.5,2.6l50.9-33.3
		c4.7-3,7.3-8.9,6.1-14.5l-33-168c-0.2-1.9-0.9-3.5-2.1-4.9L905.3,551.5c-13.8-21.1-41.5-28.6-64.2-17.6L439.4,731.5
		c-24.8,12.2-35.2,42.4-23,67.3c0.9,1.9,1.9,3.8,3,5.4l175.8,267.7c0.9,1.4,2.3,2.8,3.8,3.8l141.1,97c4.7,3.3,11,3.3,15.7,0.2
		l58.8-38.7C820.5,1130.4,822.6,1122.7,819.5,1116.3L819.5,1116.3z M748.3,1144.2l-111.3-76.6l100.1-65.6c6.6-4.2,8.2-12.9,4-19.5
		l-73.1-111.1c17.8-21.1,15.2-52.7-5.9-70.5s-52.7-15.2-70.5,5.9s-15.2,52.7,5.9,70.5c9.1,7.7,20.6,12,32.3,12
		c4.9,0,9.8-0.7,14.5-2.1l65.4,99.4l-95.9,63L442.9,789.4c-6.8-10.3-4-23.9,6.3-30.7c0.7-0.5,1.6-0.9,2.3-1.4l159.8-78.5l49.2,75
		c4.2,6.6,12.9,8.2,19.5,4l75-49.2c6.3,5.4,14.1,9.4,22.5,11c3.3,0.7,6.8,1.2,10.3,1.2c27.7,0,50.2-22.5,50.2-50.4
		c0-27.7-22.5-50.2-50.4-50.2c-27.7,0-50.2,22.5-50.2,50.4c0,4.9,0.7,9.8,2.1,14.8l-63.3,41.5l-39.6-60.5L853,559.9
		c10.1-4.9,22-1.6,28.4,7.7l69.1,105L794,775.5c-6.6,4.2-8.2,12.9-4,19.5l23.7,36.1c-18,21.1-15.5,52.7,5.6,70.8s52.7,15.5,70.8-5.6
		s15.5-52.7-5.6-70.8c-13.1-11.2-30.9-14.8-47.3-9.8l-16.2-24.4l144.8-95.2l59.3,90.2l30.7,156.1l-33,21.6
		c-56.5-55.5-147-54.6-202.5,1.6c-39.4,40.1-51.8,99.6-31.4,152.1L748.3,1144.2z M608.1,834.1c2.1-10.3,11.2-17.6,21.6-17.6
		c1.4,0,3,0.2,4.5,0.5c12,2.6,19.5,14.3,16.9,26.2c-2.6,11.7-14.1,19.5-26,17.1C613.3,857.8,605.5,846.1,608.1,834.1L608.1,834.1z
		 M775.7,651.3c10.3-6.8,23.9-3.8,30.7,6.3c6.8,10.3,4,23.9-6.3,30.7s-23.9,4-30.7-6.3S765.4,657.9,775.7,651.3L775.7,651.3z
		 M839.9,844.7c3.5-2.3,7.7-3.8,12.2-3.8c7.5,0,14.5,3.8,18.5,10.1c6.8,10.3,4,23.9-6.3,30.7s-23.9,4-30.7-6.3
		S829.6,851.5,839.9,844.7L839.9,844.7z"/>
	<path d="M945.2,969.1c-53.2-11.2-105.5,22.7-116.7,75.9c-11.2,53.2,22.7,105.5,75.9,116.7c0.2,0,0.7,0.2,0.9,0.2
		c6.6,1.4,13.4,2.1,20.2,2.1c54.4,0,98.4-44.3,98.4-98.7C1023.4,1018.8,990.6,978.7,945.2,969.1L945.2,969.1z M963.7,1124.5
		c-32.6,21.3-76.2,12.2-97.5-20.2c-21.3-32.6-12.2-76.2,20.2-97.5c32.6-21.3,76.2-12.2,97.5,20.2
		C1005.2,1059.6,996.2,1103.2,963.7,1124.5z"/>
	<path d="M925,1027.5c-7.5,0-14.8,2.1-20.9,6.3c-17.6,11.5-22.5,35.4-11,53c5.6,8.4,14.3,14.3,24.1,16.4c2.6,0.5,5.2,0.7,7.7,0.7
		c21.1,0,38.2-17.1,38.2-38.2S946.1,1027.5,925,1027.5L925,1027.5z M934.8,1067.8c-1.2,5.4-6.6,8.9-12,7.7c-5.4-1.2-8.9-6.6-7.7-12
		s6.6-8.9,12-7.7c2.6,0.5,4.9,2.1,6.3,4.2C935.1,1062.4,935.5,1065.2,934.8,1067.8L934.8,1067.8z"/>
	<path d="M522.6,640.1c5.6,8.4,14.3,14.3,24.1,16.4c2.6,0.5,5.2,0.7,7.7,0.7c21.1,0,38.2-17.1,38.2-38.2s-17.1-38.2-38.2-38.2
		c-7.5,0-14.8,2.1-20.9,6.3C516,598.8,511.1,622.5,522.6,640.1L522.6,640.1z M544.6,617.1c1.2-5.4,6.6-8.9,12-7.7
		c2.6,0.5,4.9,2.1,6.3,4.2c1.4,2.3,1.9,4.9,1.4,7.5c-1.2,5.4-6.6,8.9-12,7.7C546.9,627.9,543.4,622.5,544.6,617.1L544.6,617.1z"/>
	<path d="M673.7,525.9c-20.6-4.2-40.8,8.9-45.2,29.8s8.9,40.8,29.8,45.2s40.8-8.9,45.2-29.8c2.1-9.8,0-20.2-5.4-28.8
		C692.3,533.6,683.6,527.8,673.7,525.9L673.7,525.9z M675.9,565.3c-1.2,5.4-6.6,8.9-12,7.7c-5.4-1.2-8.9-6.6-7.7-12s6.6-8.9,12-7.7
		c2.6,0.5,4.9,2.1,6.3,4.2C675.9,559.9,676.3,562.7,675.9,565.3L675.9,565.3z"/>
	<path d="M752.5,480.9c-17.6,11.5-22.5,35.4-11,53c5.6,8.4,14.3,14.3,24.1,16.4c2.6,0.5,5.2,0.7,7.7,0.7c21.1,0,38.2-17.1,38.2-38.2
		s-17.1-38.2-38.2-38.2C765.9,474.6,758.6,476.7,752.5,480.9L752.5,480.9z M781.8,507.2c3,4.7,1.9,11-2.8,14.1s-11,1.9-14.1-2.8
		s-1.9-11,2.8-14.1c1.6-1.2,3.5-1.6,5.6-1.6C776.9,502.7,779.9,504.4,781.8,507.2L781.8,507.2z"/>
	<path d="M485.3,991.4l-43.1-8.9c-15.9-3.3-32.3,2.8-42.2,15.9l-39.6-8.2l2.1-9.8c1.6-7.5-3.3-15-11-16.6l-55.3-11.5
		c-59.8-12.4-118.4,26-130.8,85.8c-1.6,7.5,3.3,15,11,16.6l149.8,30.9c7.5,1.6,15-3.3,16.6-10.8l2.1-9.8l39.6,8.2
		c3.8,15.9,16.4,28.1,32.3,31.4l43.1,8.9c7.5,1.6,15-3.3,16.6-11l19.5-94.5C497.7,1000.3,493,992.8,485.3,991.4L485.3,991.4z
		 M318.2,1055.4l-120.9-25.1c14.8-37.3,54.1-58.6,93.5-50.4l41.5,8.7L318.2,1055.4z M386.2,1044.8l-35.6-7.3l4-19.7l35.6,7.3
		L386.2,1044.8z M452,1083l-29.3-6.1c-7.5-1.6-12.4-9.1-11-16.6l8.2-39.4c1.6-7.5,9.1-12.4,16.6-11l29.3,6.1L452,1083z"/>
	<path d="M544.6,1028.2h-0.5c-20.6-4.2-40.8,8.9-45.2,29.8c-4.5,20.9,8.9,40.8,29.8,45.2c20.6,4.2,40.8-8.9,45.2-29.8
		C578.4,1052.8,565.2,1032.6,544.6,1028.2L544.6,1028.2z M546.2,1067.6c-1.2,5.4-6.6,8.9-12,7.7c-5.4-1.2-8.9-6.6-7.7-12
		c0.9-4.7,5.2-8,9.8-8c0.7,0,1.4,0,2.1,0.2C543.9,1056.8,547.4,1062.2,546.2,1067.6L546.2,1067.6z"/>
	<path d="M443.4,639.6c-20.6-4.2-40.8,8.9-45.2,29.8c-4.2,20.6,8.9,40.8,29.8,45.2c20.6,4.2,40.8-8.9,45.2-29.8
		c2.1-9.8,0-20.2-5.4-28.8C462.1,647.3,453.4,641.5,443.4,639.6L443.4,639.6z M445.5,679c-1.2,5.4-6.6,8.9-12,7.7s-8.9-6.6-7.7-12
		c0.9-4.7,5.2-8,9.8-8c0.7,0,1.4,0,2.1,0.2C443.1,668.2,446.6,673.6,445.5,679L445.5,679z"/>
	<path d="M1159.4,1123.1l-86-131c-4.2-6.6-12.9-8.2-19.5-4l-18.5,12.2c-5.9,4-8,11.5-4.9,18c27.9,57,4.5,126.1-52.7,154
		c-47.1,23.2-104.1,11.2-138-28.6c-4.7-5.4-12.4-6.6-18.5-2.6l-16.4,10.8c-6.6,4.2-8.2,12.9-4,19.5l86,131
		c12.9,19.7,39.4,25.1,59.1,12.2l201.1-132.2C1166.9,1169.3,1172.3,1142.8,1159.4,1123.1L1159.4,1123.1z M1131.8,1158.7
		l-201.1,132.2c-6.8,4.5-15.7,2.6-20.2-4.2L843.7,1185c64.2,46.2,153.8,31.6,199.9-32.6c25.3-35.2,33.3-79.7,22-121.2l70.5,107.3
		C1140.4,1145.1,1138.6,1154.3,1131.8,1158.7L1131.8,1158.7z"/>
</g>
<path d="M435.8,589.7L362.3,491c-9.4-12.6-25.5-18-40.5-14l-2.2,1.6l-18.9-25.6c8.1-13.4,7.3-30.3-1.9-42.9l-50.3-67.4
	c-9.4-12.6-25.5-18.2-40.5-14l-21.7-29.2c1.4-4.1,2.3-8.1,2.3-12.3c0.2-11.8-4.9-23-13.8-30.4L149.1,236c-0.5-0.4-1-0.9-1.7-1.1
	c-23.4-14.3-54-7.1-68.3,16.5c-7,11.7-9,25.7-5.7,38.8c0.3,0.7,0.3,1.2,0.6,1.8l12.9,30.5c4.6,10.8,13.8,18.9,25.3,22
	c4.1,1.2,8.1,1.6,12.3,1.4l0.2,0l22.4,29.4c-8.1,13.2-7.3,30.3,1.9,42.9l0,0l50,66.7c9.4,12.6,25.5,18.2,40.5,14l19.6,26.4
	c-6.6,12.9-5.5,28.5,3.3,40.2l73.5,98.7c4.6,6.3,13.4,7.4,19.7,2.8l77.3-57.7C439.3,604.7,440.4,596,435.8,589.7z M280.9,507.6
	l-17.4-23.2l16.2-12l17.3,23.1L280.9,507.6z M128.3,315.5c-4.5,3.3-10.9,2.3-14.2-2c-0.5-0.7-0.8-1.4-1.3-2l-12.3-29.5
	c-2.6-11.6,4.7-23.1,16.3-25.9c5.1-1.2,10.5-0.4,15.2,2.1l24.7,20.4c4.2,3.5,4.8,9.8,1.3,14.2c-0.4,0.5-1.1,1.2-1.8,1.8L128.3,315.5
	z M167.4,321.6l16.6,22.2L168,356.1l-16.8-22.5L167.4,321.6z M235.5,470.1c-4.5,3.3-10.7,2.3-14-2l-50-66.7c-3.3-4.5-2.5-10.6,2-14
	l38.4-29.5c2.3-1.5,4.8-2.4,7.4-2.1c2.6,0.3,5,1.8,6.6,4.1l50.3,67.4c3.3,4.5,2.3,10.7-2,14L235.5,470.1z M350.1,636.4L285,549
	c-3.3-4.5-2.3-10.7,2-14l38.9-28.9c4.5-3.3,10.7-2.3,14,2l65.1,87.4L350.1,636.4z"/>
<path d="M798.1,421.2l-31.8-68.7c-6.2-13.3-18.4-21.8-31.8-23.9l-9.1-19.9c10.7-11.4,13.4-28.1,7-42.3l-35.4-76.3
	c-6.7-14.3-21.2-23-36.8-22L645.1,135c2.2-3.7,4-7.5,4.8-11.6c2.6-11.5-0.1-23.5-7.3-32.6l-20.8-25.6c-0.4-0.5-0.8-1.1-1.5-1.4
	c-20-18.8-51.3-18-70.2,2.2c-9.3,10-14.1,23.3-13.5,36.9c0.1,0.7,0.1,1.2,0.2,1.9l6.3,32.5c2.3,11.5,9.6,21.3,20.2,26.7
	c3.7,2,7.6,3.3,11.7,3.9l0.2,0l15.9,33.4c-10.7,11.2-13.4,28.1-7,42.3l0,0l35.2,75.6c6.7,14.3,21.2,23,36.8,22l10.9,23.6
	c-4.1,10.4-4.2,22.3,0.8,33.2l31.7,68.9c3.2,7.1,11.5,10,18.7,6.8l73-33.7C798.5,436.6,801.4,428.3,798.1,421.2z M687.7,342.4
	l-5-10.6l18.3-8.4l5,10.6l-17.4,8C688.3,342.1,688,342.2,687.7,342.4z M585,138.6c-5.1,2.3-11.1,0-13.5-4.8
	c-0.4-0.8-0.5-1.5-0.9-2.3l-6-31.5c-0.1-11.9,9.4-21.6,21.3-22c5.2-0.2,10.4,1.8,14.4,5.2l20,25c3.4,4.3,2.7,10.6-1.6,14.2
	c-0.5,0.4-1.3,1-2.1,1.3L585,138.6z M622.1,152.6l11.7,25.2l-18.1,8.7l-11.9-25.5L622.1,152.6z M658.2,312c-5.1,2.3-10.9,0-13.3-4.8
	l-35.2-75.6c-2.3-5.1-0.3-10.9,4.8-13.3l43.6-21c2.5-1,5.2-1.4,7.7-0.5c2.5,0.8,4.6,2.8,5.6,5.3l35.4,76.3c2.3,5.1,0,10.9-4.8,13.3
	L658.2,312z M719.5,442l-25.9-55.7c-3.5-6.9-0.3-15.4,6.8-18.7l0,0l21.9-10c2.5-1,5.2-1.6,8-1.2c0.9,0.1,1.9,0.3,2.7,0.6
	c3.6,1.2,6.3,4,7.9,7.3l25.9,55.7L719.5,442z"/>
<path d="M673,465.3l-48.3-92.8c-7-13.2-19.8-21.2-33.6-22.5l-14.6-28.2c10.2-11.9,12.1-28.7,5-42.6l-38.9-74.6
	c-7.3-13.9-22.3-22-37.8-20.3L488.1,152c2-3.8,3.6-7.6,4.3-11.8c2.1-11.6-1.2-23.4-8.8-32.2l-22-24.6c-0.4-0.5-0.8-1-1.5-1.3
	c-20.8-17.9-52.1-15.6-70,5.4c-8.8,10.4-13,23.9-11.8,37.4c0.2,0.7,0.1,1.2,0.3,1.9l7.8,32.1c2.9,11.4,10.6,20.9,21.4,25.7
	c3.8,1.8,7.7,2.9,11.9,3.3l0.2,0l17.4,32.6c-10.1,11.7-12.1,28.7-5,42.6l0,0l38.7,73.9c7.3,13.9,22.3,22,37.8,20.3l16.2,31.1
	l1.7-0.9c-4.3,11-4.1,23.7,1.7,35.1l0,0l48.3,92.8c3.5,7,12,9.5,19,5.9l71.4-37.1C674,480.7,676.5,472.3,673,465.3z M546.5,365.6
	c-0.5,0.2-0.9,0.5-1.4,0.8l-10.2-19.5l17.9-9.3L563,357L546.5,365.6z M428.4,158.4c-5,2.6-11.1,0.5-13.7-4.2c-0.4-0.7-0.6-1.5-1-2.2
	l-7.4-31.1c-0.7-11.8,8.4-22,20.2-22.9c5.2-0.4,10.5,1.3,14.6,4.5l21.1,24c3.6,4.1,3.2,10.5-1,14.3c-0.5,0.4-1.3,1-2,1.4
	L428.4,158.4z M466,170.7l12.8,24.6l-17.7,9.5l-13-24.9L466,170.7z M509.4,328.2c-5,2.6-10.9,0.5-13.5-4.2l-38.7-73.9
	c-2.6-5-0.8-10.9,4.2-13.5l42.6-23c2.5-1.2,5.1-1.6,7.6-0.9c2.5,0.7,4.7,2.6,5.8,5.1l38.9,74.6c2.6,5,0.5,10.9-4.2,13.5L509.4,328.2
	z M595.3,489.9l-41.8-80.3c-1.8-3.5-2.1-7.3-1-10.7l0,0c1.1-3.7,3.7-6.5,7-8.2l21.4-11c7-3.5,15.4-0.8,19,5.9l41.8,80.3L595.3,489.9
	z"/>
<path d="M549,513.9l-50.8-77.4c-7.7-11.6-20-18.2-32.9-19L446.8,389c8.9-12.9,9.2-29.8,0.7-42.9l-46.1-70.4
	c-8.7-13.1-24.4-19.7-39.6-16.4l-19.9-30.5c1.6-4,2.8-8,3.1-12.2c0.9-11.7-3.5-23.2-11.9-31.2l-24.4-22.3c-0.5-0.5-0.9-0.9-1.6-1.2
	c-22.5-15.7-53.4-10.4-69.2,12.4c-7.7,11.2-10.6,25.1-8,38.4c0.2,0.7,0.2,1.2,0.5,1.9l11,31.2c4,11,12.6,19.7,23.9,23.5
	c4,1.4,8,2.1,12.2,2.1l0.2,0l20.6,30.7c-8.9,12.6-9.2,29.8-0.7,42.9l0,0l45.9,69.7c8.7,13.1,24.4,19.7,39.6,16.4l19.2,29.3l0.3-0.2
	c-3.5,11.6-2.1,24.5,4.9,35.4l50.8,77.6c4.2,6.6,12.9,8.2,19.4,4l67.3-44C551.5,529.1,553.2,520.4,549,513.9z M407.9,418.1l16.9-11
	l12.5,18.9l-16.9,11L407.9,418.1z M283.1,241.2c-4.7,3-11,1.6-14.1-2.8c-0.5-0.7-0.7-1.4-1.2-2.1L257.4,206
	c-1.9-11.7,6.1-22.7,17.8-24.8c5.2-0.9,10.5,0.2,15,3.1l23.4,21.8c4,3.8,4.2,10.1,0.5,14.3c-0.5,0.5-1.2,1.2-1.9,1.6L283.1,241.2z
	 M321.8,249.7l15.2,23.2l-16.7,11.2l-15.4-23.5L321.8,249.7z M380.7,402.1c-4.7,3-10.8,1.6-13.8-2.8L321,329.6
	c-3-4.7-1.9-10.8,2.8-13.8l40.1-27.2c2.3-1.4,4.9-2.1,7.5-1.6c2.6,0.5,4.9,2.1,6.3,4.5l46.1,70.4c3,4.7,1.6,10.8-2.8,13.8
	L380.7,402.1z M474.2,545.9l-43.1-65.7c-4.4-6.3-2.6-15,4-19.2l0,0l20.2-13.3c2.3-1.4,4.9-2.3,7.7-2.3c0.9,0,1.9,0,2.8,0.2
	c3.7,0.7,6.8,3.1,8.9,6.1l43.1,65.7L474.2,545.9z"/>
</svg>
