<?xml version="1.0" encoding="utf-8"?>
<!-- Generator: Adobe Illustrator 27.1.1, SVG Export Plug-In . SVG Version: 6.00 Build 0)  -->
<svg version="1.1" id="Layer_1" xmlns="http://www.w3.org/2000/svg" xmlns:xlink="http://www.w3.org/1999/xlink" x="0px" y="0px"
	 viewBox="0 0 1200 1259.3" style="enable-background:new 0 0 1200 1259.3;" xml:space="preserve">
<g>
	<path d="M782.8,1013.7c-27.9-57-4.5-126.1,52.7-154c47.1-23.2,104.1-11.2,138,28.6c4.7,5.4,12.4,6.6,18.5,2.6l50.9-33.3
		c4.7-3,7.3-8.9,6.1-14.5l-33-168c-0.2-1.9-0.9-3.5-2.1-4.9L868.6,448.8c-13.8-21.1-41.5-28.6-64.2-17.6L402.7,628.8
		c-24.8,12.2-35.2,42.4-23,67.3c0.9,1.9,1.9,3.8,3,5.4l175.8,267.7c0.9,1.4,2.3,2.8,3.8,3.8l141.1,97c4.7,3.3,11,3.3,15.7,0.2
		l58.8-38.7C783.7,1027.7,785.9,1020,782.8,1013.7L782.8,1013.7z M711.6,1041.6l-111.3-76.6l100.1-65.6c6.6-4.2,8.2-12.9,4-19.5
		l-73.1-111.1c17.8-21.1,15.2-52.7-5.9-70.5s-52.7-15.2-70.5,5.9s-15.2,52.7,5.9,70.5c9.1,7.7,20.6,12,32.3,12
		c4.9,0,9.8-0.7,14.5-2.1l65.4,99.4l-95.9,63L406.2,686.7c-6.8-10.3-4-23.9,6.3-30.7c0.7-0.5,1.6-0.9,2.3-1.4l159.8-78.5l49.2,75
		c4.2,6.6,12.9,8.2,19.5,4l75-49.2c6.3,5.4,14.1,9.4,22.5,11c3.3,0.7,6.8,1.2,10.3,1.2c27.7,0,50.2-22.5,50.2-50.4
		c0-27.7-22.5-50.2-50.4-50.2c-27.7,0-50.2,22.5-50.2,50.4c0,4.9,0.7,9.8,2.1,14.8l-63.3,41.5L600,563.7l216.3-106.4
		c10.1-4.9,22-1.6,28.4,7.7l69.1,105L757.3,672.9c-6.6,4.2-8.2,12.9-4,19.5l23.7,36.1c-18,21.1-15.5,52.7,5.6,70.8
		s52.7,15.5,70.8-5.6s15.5-52.7-5.6-70.8c-13.1-11.2-30.9-14.8-47.3-9.8l-16.2-24.4l144.8-95.2l59.3,90.2l30.7,156.1l-33,21.6
		c-56.5-55.5-147-54.6-202.5,1.6c-39.4,40.1-51.8,99.6-31.4,152.1L711.6,1041.6z M571.4,731.5c2.1-10.3,11.2-17.6,21.6-17.6
		c1.4,0,3,0.2,4.5,0.5c12,2.6,19.5,14.3,16.9,26.2c-2.6,11.7-14.1,19.5-26,17.1C576.6,755.1,568.8,743.4,571.4,731.5L571.4,731.5z
		 M739,548.7c10.3-6.8,23.9-3.8,30.7,6.3c6.8,10.3,4,23.9-6.3,30.7s-23.9,4-30.7-6.3S728.7,555.2,739,548.7L739,548.7z M803.2,742
		c3.5-2.3,7.7-3.8,12.2-3.8c7.5,0,14.5,3.8,18.5,10.1c6.8,10.3,4,23.9-6.3,30.7s-23.9,4-30.7-6.3S792.9,748.8,803.2,742L803.2,742z"
		/>
	<path d="M908.4,866.5c-53.2-11.2-105.5,22.7-116.7,75.9s22.7,105.5,75.9,116.7c0.2,0,0.7,0.2,0.9,0.2c6.6,1.4,13.4,2.1,20.2,2.1
		c54.4,0,98.4-44.3,98.4-98.7C986.7,916.2,953.9,876.1,908.4,866.5L908.4,866.5z M927,1021.9c-32.6,21.3-76.2,12.2-97.5-20.2
		c-21.3-32.6-12.2-76.2,20.2-97.5c32.6-21.3,76.2-12.2,97.5,20.2C968.4,956.9,959.5,1000.5,927,1021.9z"/>
	<path d="M888.3,924.8c-7.5,0-14.8,2.1-20.9,6.3c-17.6,11.5-22.5,35.4-11,53c5.6,8.4,14.3,14.3,24.1,16.4c2.6,0.5,5.2,0.7,7.7,0.7
		c21.1,0,38.2-17.1,38.2-38.2S909.4,924.8,888.3,924.8L888.3,924.8z M898.1,965.1c-1.2,5.4-6.6,8.9-12,7.7s-8.9-6.6-7.7-12
		s6.6-8.9,12-7.7c2.6,0.5,4.9,2.1,6.3,4.2C898.4,959.8,898.8,962.6,898.1,965.1L898.1,965.1z"/>
	<path d="M485.9,537.4c5.6,8.4,14.3,14.3,24.1,16.4c2.6,0.5,5.2,0.7,7.7,0.7c21.1,0,38.2-17.1,38.2-38.2c0-21.1-17.1-38.2-38.2-38.2
		c-7.5,0-14.8,2.1-20.9,6.3C479.3,496.2,474.4,519.8,485.9,537.4L485.9,537.4z M507.9,514.4c1.2-5.4,6.6-8.9,12-7.7
		c2.6,0.5,4.9,2.1,6.3,4.2c1.4,2.3,1.9,4.9,1.4,7.5c-1.2,5.4-6.6,8.9-12,7.7C510.2,525.2,506.7,519.8,507.9,514.4L507.9,514.4z"/>
	<path d="M637,423.3c-20.6-4.2-40.8,8.9-45.2,29.8s8.9,40.8,29.8,45.2s40.8-8.9,45.2-29.8c2.1-9.8,0-20.2-5.4-28.8
		C655.5,431,646.9,425.1,637,423.3L637,423.3z M639.1,462.6c-1.2,5.4-6.6,8.9-12,7.7s-8.9-6.6-7.7-12s6.6-8.9,12-7.7
		c2.6,0.5,4.9,2.1,6.3,4.2C639.1,457.2,639.6,460.1,639.1,462.6L639.1,462.6z"/>
	<path d="M715.8,378.3c-17.6,11.5-22.5,35.4-11,53c5.6,8.4,14.3,14.3,24.1,16.4c2.6,0.5,5.2,0.7,7.7,0.7c21.1,0,38.2-17.1,38.2-38.2
		s-17.1-38.2-38.2-38.2C729.1,371.9,721.9,374,715.8,378.3L715.8,378.3z M745.1,404.5c3,4.7,1.9,11-2.8,14.1s-11,1.9-14.1-2.8
		s-1.9-11,2.8-14.1c1.6-1.2,3.5-1.6,5.6-1.6C740.2,400.1,743.2,401.7,745.1,404.5L745.1,404.5z"/>
	<path d="M507.9,925.5h-0.5c-20.6-4.2-40.8,8.9-45.2,29.8s8.9,40.8,29.8,45.2c20.6,4.2,40.8-8.9,45.2-29.8
		C541.6,950.1,528.5,930,507.9,925.5L507.9,925.5z M509.5,964.9c-1.2,5.4-6.6,8.9-12,7.7s-8.9-6.6-7.7-12c0.9-4.7,5.2-8,9.8-8
		c0.7,0,1.4,0,2.1,0.2C507.2,954.1,510.7,959.5,509.5,964.9L509.5,964.9z"/>
	<path d="M406.6,536.9c-20.6-4.2-40.8,8.9-45.2,29.8c-4.2,20.6,8.9,40.8,29.8,45.2c20.6,4.2,40.8-8.9,45.2-29.8
		c2.1-9.8,0-20.2-5.4-28.8C425.4,544.7,416.7,538.8,406.6,536.9L406.6,536.9z M408.7,576.3c-1.2,5.4-6.6,8.9-12,7.7s-8.9-6.6-7.7-12
		c0.9-4.7,5.2-8,9.8-8c0.7,0,1.4,0,2.1,0.2C406.4,565.5,409.9,570.9,408.7,576.3L408.7,576.3z"/>
	<path d="M1122.7,1020.5l-86-131c-4.2-6.6-12.9-8.2-19.5-4l-18.5,12.2c-5.9,4-8,11.5-4.9,18c27.9,57,4.5,126.1-52.7,154
		c-47.1,23.2-104.1,11.2-138-28.6c-4.7-5.4-12.4-6.6-18.5-2.6l-16.4,10.8c-6.6,4.2-8.2,12.9-4,19.5l86,131
		c12.9,19.7,39.4,25.1,59.1,12.2l201.1-132.2C1130.2,1066.6,1135.6,1040.1,1122.7,1020.5L1122.7,1020.5z M1095,1056.1L894,1188.3
		c-6.8,4.5-15.7,2.6-20.2-4.2L807,1082.3c64.2,46.2,153.8,31.6,199.9-32.6c25.3-35.2,33.3-79.7,22-121.2l70.5,107.3
		C1103.7,1042.5,1101.8,1051.6,1095,1056.1L1095,1056.1z"/>
</g>
<path d="M399.8,494.8l-73.5-98.7c-9.4-12.6-25.5-18-40.5-14l-2.2,1.6l-18.9-25.6c8.1-13.4,7.3-30.3-1.9-42.9l-50.3-67.4
	c-9.4-12.6-25.5-18.2-40.5-14l-21.7-29.2c1.4-4.1,2.3-8.1,2.3-12.3c0.2-11.8-4.9-23-13.8-30.4l-25.7-20.8c-0.5-0.4-1-0.9-1.7-1.1
	c-23.4-14.3-54-7.1-68.3,16.5c-7,11.7-9,25.7-5.7,38.8c0.3,0.7,0.3,1.2,0.6,1.8l12.9,30.5c4.6,10.8,13.8,18.9,25.3,22
	c4.1,1.2,8.1,1.6,12.3,1.4l0.2,0l22.4,29.4c-8.1,13.2-7.3,30.3,1.9,42.9l0,0l50,66.7c9.4,12.6,25.5,18.2,40.5,14l19.6,26.4
	c-6.6,12.9-5.5,28.5,3.3,40.2l73.5,98.7c4.6,6.3,13.4,7.4,19.7,2.8l77.3-57.7C403.3,509.8,404.4,501.1,399.8,494.8z M244.9,412.7
	l-17.4-23.2l16.2-12l17.3,23.1L244.9,412.7z M92.2,220.6c-4.5,3.3-10.9,2.3-14.2-2c-0.5-0.7-0.8-1.4-1.3-2L64.4,187
	c-2.6-11.6,4.7-23.1,16.3-25.9c5.1-1.2,10.5-0.4,15.2,2.1l24.7,20.4c4.2,3.5,4.8,9.8,1.3,14.2c-0.4,0.5-1.1,1.2-1.8,1.8L92.2,220.6z
	 M131.4,226.7l16.6,22.2L132,261.2l-16.8-22.5L131.4,226.7z M199.4,375.2c-4.5,3.3-10.7,2.3-14-2l-50-66.7c-3.3-4.5-2.5-10.6,2-14
	l38.4-29.5c2.3-1.5,4.8-2.4,7.4-2.1c2.6,0.3,5,1.8,6.6,4.1l50.3,67.4c3.3,4.5,2.3,10.7-2,14L199.4,375.2z M314.1,541.5L249,454.1
	c-3.3-4.5-2.3-10.7,2-14l38.9-28.9c4.5-3.3,10.7-2.3,14,2l65.1,87.4L314.1,541.5z"/>
<path d="M512.9,419l-50.8-77.4c-7.7-11.6-20-18.2-32.9-19l-18.5-28.5c8.9-12.9,9.2-29.8,0.7-42.9l-46.1-70.4
	c-8.7-13.1-24.4-19.7-39.6-16.4l-19.9-30.5c1.6-4,2.8-8,3.1-12.2c0.9-11.7-3.5-23.2-11.9-31.2l-24.4-22.3c-0.5-0.5-0.9-0.9-1.6-1.2
	c-22.5-15.7-53.4-10.4-69.2,12.4c-7.7,11.2-10.6,25.1-8,38.4c0.2,0.7,0.2,1.2,0.5,1.9l11,31.2c4,11,12.6,19.7,23.9,23.5
	c4,1.4,8,2.1,12.2,2.1l0.2,0l20.6,30.7c-8.9,12.6-9.2,29.8-0.7,42.9l0,0l45.9,69.7c8.7,13.1,24.4,19.7,39.6,16.4l19.2,29.3l0.3-0.2
	c-3.5,11.6-2.1,24.5,4.9,35.4l50.8,77.6c4.2,6.6,12.9,8.2,19.4,4l67.3-44C515.5,434.2,517.2,425.5,512.9,419z M371.8,323.2l16.9-11
	l12.5,18.9l-16.9,11L371.8,323.2z M247.1,146.3c-4.7,3-11,1.6-14.1-2.8c-0.5-0.7-0.7-1.4-1.2-2.1l-10.5-30.2
	c-1.9-11.7,6.1-22.7,17.8-24.8c5.2-0.9,10.5,0.2,15,3.1l23.4,21.8c4,3.8,4.2,10.1,0.5,14.3c-0.5,0.5-1.2,1.2-1.9,1.6L247.1,146.3z
	 M285.7,154.8l15.2,23.2l-16.7,11.2l-15.4-23.5L285.7,154.8z M344.7,307.2c-4.7,3-10.8,1.6-13.8-2.8L285,234.7
	c-3-4.7-1.9-10.8,2.8-13.8l40.1-27.2c2.3-1.4,4.9-2.1,7.5-1.6c2.6,0.5,4.9,2.1,6.3,4.5l46.1,70.4c3,4.7,1.6,10.8-2.8,13.8
	L344.7,307.2z M438.1,451l-43.1-65.7c-4.4-6.3-2.6-15,4-19.2l0,0l20.2-13.3c2.3-1.4,4.9-2.3,7.7-2.3c0.9,0,1.9,0,2.8,0.2
	c3.7,0.7,6.8,3.1,8.9,6.1l43.1,65.7L438.1,451z"/>
<path d="M494.2,322.8l47.7,93.1c3.5,7,11.9,9.5,18.9,6.1l71.6-36.6c7-3.5,9.5-11.9,6.1-18.9l-47.7-93.1
	c-10.7-20.7-36-28.9-56.7-18.4l-21.5,10.9C491.9,276.6,483.7,301.8,494.2,322.8L494.2,322.8z M518.4,299.2c1.1-3.7,3.8-6.4,7-8.2
	l21.5-10.9c7-3.5,15.4-0.7,18.9,6.1l41.3,80.6l-46.4,23.7l-41.3-80.6C517.6,306.5,517.3,302.6,518.4,299.2L518.4,299.2z"/>
<path d="M655.1,355.3c2.5,7.4,10.5,11.1,17.9,8.7l76.1-26.1c7.4-2.5,11.1-10.5,8.7-17.9l-24.5-71.6c-7.7-22-31.6-33.7-53.5-26.2
	l-22.8,7.7c-22,7.7-33.7,31.6-26.2,53.5L655.1,355.3z M666,256.7l22.8-7.7c2.6-0.8,5.3-1.1,8.1-0.4c0.9,0.2,1.8,0.5,2.7,0.9
	c3.5,1.6,5.8,4.6,7.1,8.1l20,58.1l-49.3,16.9l-20-58.1C654.6,267.4,658.6,259.2,666,256.7L666,256.7z"/>
<path d="M492.7,868.7L461,838.1c-11.7-11.3-28.8-14.9-44.2-9L387.7,801l7-7.2c5.4-5.5,5.2-14.4-0.4-20l-40.6-39.2
	c-43.9-42.4-114-41.2-156.4,2.7c-5.4,5.5-5.2,14.4,0.4,20l110.1,106.1c5.5,5.4,14.4,5.2,19.8-0.2l7-7.2l29.1,28.1
	c-5.3,15.5-1.1,32.5,10.6,43.8l31.7,30.6c5.5,5.4,14.4,5.2,20-0.4l66.9-69.5C498.5,882.8,498.5,874,492.7,868.7L492.7,868.7z
	 M317.3,833.5l-88.9-85.8c32.4-23.6,77.1-20.6,106,7.3l30.4,29.5L317.3,833.5z M380.4,860.9l-26.2-25.2l13.9-14.5l26.2,25.2
	L380.4,860.9z M415.7,928.4l-21.5-20.8c-5.5-5.4-5.6-14.4-0.4-20l28-28.9c5.4-5.5,14.4-5.6,20-0.4l21.5,20.8L415.7,928.4z"/>
</svg>
