<?xml version="1.0" encoding="UTF-8"?>
<svg width="100pt" height="100pt" version="1.1" viewBox="0 0 100 100" xmlns="http://www.w3.org/2000/svg">
 <path d="m94.98 94.566c-0.24609-0.50781-5.8594-12.125-12.285-18.43 0.76563-0.98438 1.207-2.2461 0.75781-3.7461-0.53906-1.7891-1.8906-2.7734-3.8086-2.7734-1.0469 0-1.8945 0.30078-2.043 0.35547-0.097656 0.042969-0.48437 0.21094-1.0859 0.48047-1.9727-2.957-16.715-25.141-18.348-29.27-0.94531-2.3984-1.6523-6.5977-2.3359-10.664-0.57422-3.4102-1.1641-6.9414-1.9141-9.4492-1.5078-5.0742-5.7773-14.617-11.094-14.496-1.5352 0.039062-2.2578 0.73828-2.5977 1.3164-1.1328 1.9375 0.37891 5.1484 2.168 8.5469 0.19922 0.37891 0.37891 0.71875 0.52344 1.0117 0.58594 1.1719 1.2305 3.4961 1.2148 4.4883-0.79297-0.57812-2.0039-2.6875-2.9961-4.4141-1.2305-2.1445-2.6289-4.5742-4.2188-6.2422-0.46875-0.48828-0.94141-1.0078-1.4219-1.5273-3.1484-3.4141-6.4062-6.9414-9.1875-5.3789-0.85156 0.47656-1.418 1.1914-1.6367 2.0664-0.44531 1.7773 0.67969 3.6016 0.86719 3.8828 0.074219 0.09375 7.5039 9.5078 9.7148 13.895 0.085938 0.28516 0.03125 1.0352-0.10156 1.5234-0.74219-0.78906-1.9062-1.8359-3.3594-3.1406-2.543-2.2891-6.0234-5.4219-9.1055-8.8906-2.832-3.1914-5.3516-4.6758-7.4883-4.3984-1.3984 0.17969-2.2891 1.0898-2.6641 1.7031-0.82812 0.83984-1.2344 1.7969-1.207 2.8398 0.046875 1.9805 1.6797 4.3086 5.1328 7.3242 4.4766 3.9102 11.27 10.977 11.734 12.918-0.55859-0.09375-2.0742-0.83203-6.1094-4.5469l-0.26953-0.24609c-0.82031-0.75391-10.879-8.2266-14.578-6.1133-1.2578 0.71875-1.9805 1.9844-1.9883 3.4727-0.007812 2.3828 1.75 4.9023 4.5938 6.5742 0.88281 0.51953 2.1328 1.2031 3.5781 1.9922 4.3359 2.3711 10.883 5.9531 13.66 8.5938 0.6875 0.65234 1.0742 1.1094 1.2891 1.4062-1.0352-0.13281-6.0508-0.78516-9-1.375-1.8203-0.36328-6.1992-0.99219-7.6055 1.0117-0.67969 0.96875-0.55078 2.2383 0.37891 3.7734 4.4805 7.3984 20.344 5.7266 22.617 5.4414 3.7383 1.5859 14.562 18.152 20.699 28.543-0.45703 0.44531-0.85547 0.87891-1.1641 1.2969-0.66016 0.90234-1.1055 3.3125-0.35547 4.7852 0.44141 0.87109 1.2305 1.3477 2.2188 1.3477 0.60938 0 1.2773-0.17969 2.0469-0.54688 0.33984-0.16406 0.77344-0.37891 1.2734-0.62891 0.82031 1.1094 2.5742 3.2266 6.3008 7.6523 0.19922 0.23438 0.48047 0.35547 0.76562 0.35547 0.22656 0 0.45312-0.078125 0.64453-0.23438 0.42188-0.35547 0.47656-0.98438 0.12109-1.4102-2.3242-2.7656-4.8672-5.8281-6.0156-7.2852 6.1797-3.1562 17.52-9.1523 18.508-9.6719 0.42969-0.17578 0.93359-0.44141 1.4336-0.78906 6.1992 6.0469 11.883 17.805 11.941 17.926 0.17187 0.36719 0.52734 0.57812 0.90234 0.57812 0.14453 0 0.29297-0.03125 0.43359-0.097656 0.49609-0.24219 0.70703-0.83594 0.46484-1.3359zm-46.512-26.824c-9.6602-14.516-12.398-15.359-13.301-15.637-0.14062-0.042969-0.28516-0.054688-0.42969-0.035157-0.16797 0.023438-16.836 2.2227-20.883-4.4648-0.53516-0.88672-0.58594-1.4023-0.45312-1.5898 0.44531-0.63281 2.9453-0.72266 5.5742-0.19922 3.3594 0.67188 9.0938 1.3906 9.3203 1.4219 0.80078 0.11328 1.7969-0.0625 2.1953-0.89062 0.59766-1.2344-0.69141-2.6992-2.0312-3.9727-2.9648-2.8164-9.3906-6.332-14.078-8.8984-1.4219-0.77734-2.6523-1.4492-3.5234-1.9648-2.668-1.5703-3.6094-3.5859-3.6016-4.8359 0.003907-0.54297 0.17578-1.2891 0.98438-1.75 1.8516-1.0586 9.8828 3.6953 12.23 5.8516l0.26562 0.24219c3.5742 3.293 6.3125 5.4062 8.0664 5.0391 0.58203-0.12109 1.0391-0.5 1.2812-1.0625 1.4297-3.2773-11.742-14.836-12.305-15.324-2.918-2.5508-4.418-4.5273-4.4492-5.8672-0.011719-0.52734 0.20312-0.97656 0.70312-1.457 0.070313-0.070312 0.14062-0.16406 0.19141-0.25391 0.015626-0.027344 0.39844-0.70703 1.2617-0.80078 0.80859-0.09375 2.6289 0.27344 5.707 3.7422 3.1523 3.5547 6.6836 6.7305 9.2617 9.0508 1.5078 1.3555 2.6953 2.4258 3.3633 3.1562 1.0977 1.2031 2.0703 0.6875 2.3438 0.5 1.1875-0.81641 1.3359-3.5 0.89844-4.375-2.3203-4.6172-9.6445-13.895-9.8945-14.207-0.20703-0.32422-0.75391-1.4297-0.55078-2.2383 0.054687-0.21484 0.17969-0.52734 0.67187-0.80469 1.4062-0.78906 4.4883 2.5508 6.7422 4.9883 0.48828 0.52734 0.97266 1.0508 1.4453 1.5508 1.4258 1.4922 2.7578 3.8125 3.9297 5.8555 1.6055 2.7969 2.875 5.0039 4.4023 5.4688 1.0391 0.31641 1.6328-0.21484 1.8359-0.46094 1.457-1.7266-0.90625-6.9219-0.93359-6.9727-0.15234-0.30469-0.33984-0.65625-0.54297-1.0508-0.85938-1.6367-2.8789-5.4648-2.2109-6.6016 0.12109-0.20312 0.42969-0.3125 0.92578-0.32812 3.6172-0.082031 7.4922 7.5859 9.1289 13.07 0.71484 2.3906 1.2969 5.8555 1.8555 9.2109 0.69922 4.1641 1.4219 8.4727 2.4492 11.066 1.6836 4.2656 15.773 25.488 18.367 29.379-4.4648 2.0742-12.922 6.2305-17.68 9.9961-1.0273-1.7031-4.5625-7.5781-8.5352-13.547zm30.539 8.7188c-0.03125 0.011718-0.066406 0.027343-0.097656 0.046874-0.15234 0.082032-13.566 7.1758-19.559 10.211h-0.003906c-0.82812 0.41797-1.5156 0.76172-2.0078 0.99609-0.60156 0.28906-0.97656 0.34766-1.1797 0.34766-0.25781 0-0.34766-0.082031-0.42969-0.24609-0.38281-0.73828-0.074219-2.3438 0.18359-2.707 3.7344-5.0938 22.305-13.219 22.43-13.277 0.007812-0.003906 0.60547-0.21484 1.3047-0.21484 1.0273 0 1.6133 0.41797 1.8945 1.3516 0.32422 1.0742-0.26172 1.9258-0.94922 2.5195-0.011719 0.011719-0.027344 0.015625-0.035156 0.027344-0.003906 0.003906-0.003906 0.007813-0.007813 0.011719-0.69531 0.58203-1.4805 0.90625-1.543 0.93359z"/>
</svg>
