<svg xmlns="http://www.w3.org/2000/svg" width="75" height="75.724" viewBox="0 0 75 75.724">
  <path id="noun-peace-147845" d="M138.6,132.363a18.394,18.394,0,0,0-4.031-5.419c-2.356-2.02-2.8-3.468-2.768-3.854a3.571,3.571,0,0,0-.579-1.975,5.914,5.914,0,0,0,.36-2.875,2.665,2.665,0,0,0-2.924-2.648,5.468,5.468,0,0,0-.638.043c-3.037-3.137-19.269-20.4-21.366-22.63A28.352,28.352,0,0,0,99.23,74.84a4.26,4.26,0,0,0-3.84-1.644,5.378,5.378,0,0,0-3.318,2.731,4.1,4.1,0,0,0-3.215-.031A4.531,4.531,0,0,0,86.9,77.677a105.155,105.155,0,0,0-6.3-9.485c-1.062-1.485-2.066-2.888-2.913-4.147-1.756-2.607-3.238-2.714-4.174-2.343-1.4.554-2.079,2.538-1.835,4.043.293,1.8,2.353,4.829,4.739,8.332.639.939,1.3,1.9,1.935,2.869.988,1.494,1.951,2.782,2.726,3.816.2.273.416.556.616.828-1.647-.93-4.121-2.478-6.1-3.718-1.633-1.022-3.322-2.078-4.678-2.884-2.706-1.61-4.651-2.052-5.948-1.352a2.594,2.594,0,0,0-1.283,2.289c-.118,2.55,3.908,5.513,5.644,6.668,2.022,1.345,6.286,3.934,9.9,6.1a3.582,3.582,0,0,0-2.1.349,1.84,1.84,0,0,0-.877,1.558c-.1,2.884,2.4,5.238,7.44,7a41.445,41.445,0,0,0,7.026,1.718c6.75,4.048,12,12.849,15.836,19.289.457.766.894,1.5,1.32,2.2a3.219,3.219,0,0,0-.773,2.507,2.921,2.921,0,0,0,1.98,2.049,7.09,7.09,0,0,0,2.539,2.43,10.966,10.966,0,0,1,1.48,1.175c1.11,1.273,2.986,6.032,3.616,7.757a.834.834,0,0,0,.784.548.844.844,0,0,0,.286-.051.835.835,0,0,0,.5-1.07c-.242-.664-2.412-6.545-3.926-8.282a11.315,11.315,0,0,0-1.764-1.435c-.22-.158-.505-.363-.79-.579.314.015.64.025,1,.025a62.062,62.062,0,0,0,14.314-2.114l.332-.113a10.448,10.448,0,0,0,2.6-1.138,1.187,1.187,0,0,1,.1.45c-.1,1.4,1.146,3.36,3.346,5.246a16.95,16.95,0,0,1,3.609,4.865.835.835,0,0,0,1.511-.711ZM91.42,97.791a.837.837,0,0,0-.311-.108c-3.719-.506-13.339-2.755-13.193-7.029,0-.146.041-.168.082-.193.855-.526,4.49.54,7.348,1.866a.835.835,0,0,0,.776-1.476C86,90.78,74.067,83.738,70.255,81.2c-2.937-1.953-4.952-4.092-4.9-5.2a.986.986,0,0,1,.407-.9c.255-.139,1.326-.452,4.3,1.317,1.34.8,3.021,1.848,4.646,2.865,7.642,4.781,8.384,5.088,9.124,4.648a1.022,1.022,0,0,0,.487-.688c.149-.748-.451-1.55-1.9-3.487-.761-1.018-1.709-2.284-2.671-3.737-.644-.972-1.3-1.943-1.948-2.888-2.084-3.059-4.237-6.222-4.471-7.66-.141-.87.27-2.012.8-2.222.386-.156,1.162.22,2.175,1.723.861,1.279,1.872,2.691,2.941,4.186A82.259,82.259,0,0,1,86.2,79.944a.835.835,0,0,0,1.561-.145,4,4,0,0,1,1.779-2.378,2.893,2.893,0,0,1,2.518.33.835.835,0,0,0,1.155-.407c.251-.581,1.244-2.287,2.47-2.5a2.76,2.76,0,0,1,2.337,1.148,26.581,26.581,0,0,1,6.975,17.36.838.838,0,0,0,.226.565c.73.777,16.439,17.488,20.929,22.179-.342.121-.61.234-.741.293l-16.1,3.563c-.426-.7-.863-1.433-1.321-2.2-3.957-6.638-9.377-15.729-16.563-19.955Zm35.488,24.28-.336.114A60.955,60.955,0,0,1,112.8,124.21a8.806,8.806,0,0,1-2.974-.347c-.451-.174-1.006-.467-1.088-.871a1.945,1.945,0,0,1,.592-1.338L125.854,118a.872.872,0,0,0,.177-.061,7.5,7.5,0,0,1,2.631-.674c.98,0,1.208.421,1.259,1.1a3.582,3.582,0,0,1-.34,2.315.89.89,0,0,0-.056.073c-.448.585-1.277.868-2.616,1.32Z" transform="translate(-63.683 -61.545)" fill="#f7f7f9"/>
</svg>
