<svg xmlns="http://www.w3.org/2000/svg" xmlns:xlink="http://www.w3.org/1999/xlink" width="90" height="90" viewBox="0 0 90 90">
  <defs>
    <clipPath id="clip-path">
      <rect id="Rectangle_6" data-name="Rectangle 6" width="90" height="90" rx="5" transform="translate(562 540)" fill="none" stroke="#f7f7f9" stroke-linejoin="round" stroke-width="2"/>
    </clipPath>
  </defs>
  <g id="Mask_Group_1" data-name="Mask Group 1" transform="translate(-562 -540)" clip-path="url(#clip-path)">
    <path id="noun-hand-147844" d="M138.011,123.525c-.2-.425-4.892-10.123-10.257-15.387a3.341,3.341,0,0,0,.632-3.129,3.09,3.09,0,0,0-3.18-2.317,5.2,5.2,0,0,0-1.705.3c-.083.036-.4.177-.907.4-1.646-2.47-13.957-20.991-15.32-24.44a53.446,53.446,0,0,1-1.95-8.9,73.447,73.447,0,0,0-1.6-7.89c-1.262-4.237-4.827-12.2-9.265-12.106a2.386,2.386,0,0,0-2.169,1.1c-.947,1.617.316,4.3,1.811,7.135.166.315.316.6.438.843a11.366,11.366,0,0,1,1.014,3.749,16.258,16.258,0,0,1-2.5-3.686,28.037,28.037,0,0,0-3.522-5.211c-.39-.409-.787-.84-1.187-1.274-2.629-2.85-5.349-5.8-7.673-4.49A2.716,2.716,0,0,0,79.3,49.942a4.551,4.551,0,0,0,.724,3.242c.063.079,6.266,7.939,8.11,11.6a3.209,3.209,0,0,1-.083,1.273c-.62-.658-1.593-1.533-2.8-2.623a95.24,95.24,0,0,1-7.6-7.423c-2.365-2.665-4.469-3.9-6.253-3.672a3.114,3.114,0,0,0-2.224,1.421,3.2,3.2,0,0,0-1.008,2.37c.04,1.654,1.4,3.6,4.287,6.117,3.738,3.266,9.408,9.164,9.8,10.785-.465-.079-1.732-.7-5.1-3.8l-.224-.205c-.686-.629-9.082-6.87-12.172-5.1a3.275,3.275,0,0,0-1.662,2.9c-.013,1.986,1.455,4.089,3.828,5.486.738.434,1.782,1.006,2.988,1.665,3.619,1.981,9.088,4.972,11.406,7.175a8.87,8.87,0,0,1,1.077,1.176c-.866-.11-5.052-.656-7.515-1.147-1.52-.3-5.177-.828-6.35.843-.566.807-.459,1.868.317,3.15,3.74,6.178,16.987,4.781,18.886,4.544,3.121,1.323,12.158,15.155,17.283,23.834a8.832,8.832,0,0,0-.972,1.083,4.634,4.634,0,0,0-.3,4,1.985,1.985,0,0,0,1.852,1.126,3.982,3.982,0,0,0,1.708-.456c.283-.136.646-.315,1.063-.523.685.927,2.151,2.694,5.26,6.389a.835.835,0,0,0,1.279-1.074c-1.942-2.309-4.063-4.868-5.023-6.082,5.161-2.637,14.629-7.641,15.453-8.076a6.384,6.384,0,0,0,1.2-.66c5.177,5.048,9.923,14.867,9.971,14.968a.832.832,0,0,0,.752.473.821.821,0,0,0,.361-.083.834.834,0,0,0,.391-1.114Zm-38.835-22.4C91.111,89.007,88.822,88.3,88.07,88.072a.8.8,0,0,0-.359-.028c-.139.019-14.057,1.856-17.437-3.728-.448-.739-.488-1.17-.379-1.327.372-.529,2.46-.6,4.656-.165,2.8.56,7.593,1.162,7.782,1.186a1.687,1.687,0,0,0,1.833-.745c.5-1.03-.579-2.255-1.7-3.318-2.477-2.352-7.84-5.287-11.756-7.429-1.186-.65-2.215-1.211-2.942-1.639-2.228-1.312-3.013-2.995-3.006-4.038a1.611,1.611,0,0,1,.821-1.461c1.545-.884,8.25,3.087,10.214,4.886l.221.2c2.985,2.749,5.27,4.513,6.734,4.208a1.482,1.482,0,0,0,1.071-.887c1.194-2.735-9.8-12.387-10.274-12.8-2.437-2.13-3.688-3.779-3.715-4.9a1.58,1.58,0,0,1,.588-1.217.923.923,0,0,0,.159-.211,1.425,1.425,0,0,1,1.054-.67c.675-.077,2.2.229,4.766,3.126a96.68,96.68,0,0,0,7.735,7.557c1.257,1.132,2.251,2.026,2.807,2.636a1.414,1.414,0,0,0,1.957.417c.992-.681,1.116-2.923.751-3.653-1.937-3.857-8.051-11.6-8.263-11.864a2.919,2.919,0,0,1-.461-1.869,1.031,1.031,0,0,1,.562-.673c1.176-.66,3.749,2.129,5.628,4.166.407.441.811.878,1.207,1.294a27,27,0,0,1,3.282,4.891c1.341,2.335,2.4,4.179,3.675,4.566a1.376,1.376,0,0,0,1.533-.383c1.217-1.441-.757-5.78-.779-5.822-.126-.253-.282-.549-.454-.876-.719-1.365-2.4-4.562-1.847-5.512.1-.17.36-.262.772-.274,3.022-.069,6.257,6.335,7.622,10.914a72.4,72.4,0,0,1,1.551,7.689,53.973,53.973,0,0,0,2.044,9.24c1.407,3.563,13.17,21.281,15.335,24.531-3.729,1.733-10.789,5.2-14.762,8.348-.851-1.427-3.8-6.331-7.118-11.315Zm25.5,7.277c-.027.011-.054.023-.082.038-.129.068-11.329,5.99-16.332,8.524h0c-.691.35-1.267.637-1.675.833a2.4,2.4,0,0,1-.986.291.334.334,0,0,1-.359-.205,3.168,3.168,0,0,1,.152-2.261c3.118-4.253,18.623-11.038,18.729-11.086a3.655,3.655,0,0,1,1.088-.178,1.447,1.447,0,0,1,1.581,1.129,1.982,1.982,0,0,1-.791,2.1c-.009.009-.022.013-.03.022s0,.006,0,.008a5.376,5.376,0,0,1-1.287.78Z" transform="translate(513.907 503.46)" fill="#f7f7f9"/>
  </g>
</svg>
