<svg xmlns="http://www.w3.org/2000/svg" width="75" height="75.93" viewBox="0 0 75 75.93">
  <path id="noun-hand-147847" d="M119.531,105.319a74.421,74.421,0,0,1-5.215-7.574,9.8,9.8,0,0,0-2.658-3.021,8.216,8.216,0,0,1-2.935-4.007.781.781,0,0,0-.1-.162,6.482,6.482,0,0,0,.136-1.706c-.239-2.766-2.105-3.064-2.9-3.064a5.641,5.641,0,0,0-2.4.632.829.829,0,0,0-.313.3L102.3,88.1C89.121,79.59,80.11,71.5,76.217,64.679c-.147-2.414-1.225-16.587-6.24-18.8a4.011,4.011,0,0,0-3.943.53c-1.1-1.584-2.96-3.4-5.38-2.592a3.249,3.249,0,0,0-1.97,1.75,6.243,6.243,0,0,0-.263,3.6,4.3,4.3,0,0,0-4.506.689c-1.7,1.364-1.538,3.379-.945,5.063a3.869,3.869,0,0,0-1.021-.4,4.187,4.187,0,0,0-4.057,1.9c-.55.87-1.133,2.569.044,5.144a1.817,1.817,0,0,0-1.259.2,4.566,4.566,0,0,0-1.942,3.4,6.978,6.978,0,0,0,2.34,5.662c4.662,4.592,9.589,8.909,18.523,11.3C67.464,83.56,88.433,99.766,92.7,103.6c-.782.947-2.032,2.766-1.651,4.365a2.842,2.842,0,0,0,2.082,2.005,8.541,8.541,0,0,0,2.694.524,4.381,4.381,0,0,0,1.058-.135c1.611.183,5.616,1.062,6.663,3.182a20.027,20.027,0,0,0,4.821,5.818.819.819,0,1,0,1.026-1.276,18.641,18.641,0,0,1-4.378-5.266c-1.079-2.187-3.97-3.24-5.989-3.724a18.522,18.522,0,0,0,1.479-1.761l.242-.313a65.393,65.393,0,0,0,7.21-14.044,9.975,9.975,0,0,0,2.652,3.008,8.3,8.3,0,0,1,2.271,2.553,74.61,74.61,0,0,0,5.359,7.792.82.82,0,1,0,1.289-1.012ZM66.177,80.576C57.53,78.3,52.751,74.114,48.225,69.656a5.386,5.386,0,0,1-1.861-4.321A2.98,2.98,0,0,1,47.5,63.168a4.58,4.58,0,0,1,1.958.78.82.82,0,0,0,1.1-1.177c-1.638-2.249-2.092-4.194-1.281-5.48a2.547,2.547,0,0,1,2.371-1.167,12.922,12.922,0,0,1,3.1,2A.819.819,0,0,0,55.921,57c-.031-.041-3.071-4.188-.981-5.866s4.045.27,4.259.495a.819.819,0,0,0,1.361-.862c-.319-.8-1.01-3.17-.387-4.515a1.594,1.594,0,0,1,1-.882c1.685-.566,3.142,1.322,3.909,2.6L67.96,55.8a.819.819,0,1,0,1.538-.564l-2.31-6.29a.8.8,0,0,0-.023-.538c-.018-.043-.116-.268-.283-.592a2.485,2.485,0,0,1,2.434-.436c3.611,1.595,5.034,13.236,5.277,17.587a.832.832,0,0,0,.1.355c4.031,7.2,13.037,15.335,26.752,24.188l-7.78,12.764c-4.9-4.336-26.234-20.8-27.2-21.548a.806.806,0,0,0-.291-.145Zm33.28,25.437-.245.316c-1.357,1.754-2.014,2.529-3.383,2.529a7.02,7.02,0,0,1-2.17-.437c-.882-.3-.979-.7-1.01-.833-.239-1,1.1-2.764,1.783-3.463a.775.775,0,0,0,.115-.148l8.7-14.282,0,0a0,0,0,0,0,0,0l1.168-1.917a3.866,3.866,0,0,1,1.438-.35c.366,0,1.129,0,1.265,1.567.3,3.47-5.714,14.507-7.669,17.022Z" transform="translate(-44.704 -43.614)" fill="#f7f7f9"/>
</svg>
