<?xml version="1.0" encoding="UTF-8"?>
<svg width="100pt" height="100pt" version="1.1" viewBox="0 0 100 100" xmlns="http://www.w3.org/2000/svg">
 <path d="m95.066 78.957c-0.042968-0.054687-4.2773-5.4727-6.3672-9.2461-1.0195-1.8398-2.1484-2.7773-3.2461-3.6875-1.3125-1.0898-2.5508-2.1133-3.582-4.8906-0.027344-0.074218-0.078125-0.13281-0.12109-0.19922 0.15234-0.79688 0.21484-1.5039 0.16406-2.082-0.29297-3.375-2.5703-3.7383-3.5352-3.7383-1.4453 0-2.7812 0.69141-2.9258 0.76953-0.15625 0.085938-0.28906 0.21094-0.38281 0.35938l-1.0352 1.6992c-16.09-10.391-27.094-20.262-31.844-28.594-0.17969-2.9453-1.4961-20.246-7.6172-22.953-1.5078-0.66406-3.1211-0.44141-4.8125 0.64844-1.3438-1.9336-3.6133-4.1562-6.5664-3.1641-1.0977 0.36719-1.9297 1.1055-2.4062 2.1367-0.625 1.3555-0.5625 3.0156-0.32031 4.3945-1.5625-0.62891-3.5508-0.72266-5.5 0.83984-2.0742 1.6641-1.8789 4.125-1.1523 6.1797-0.46094-0.24219-0.89062-0.42578-1.2461-0.48828-1.5078-0.28516-3.7617 0.4375-4.9531 2.3242-0.67188 1.0625-1.3828 3.1367 0.054687 6.2812-0.5625-0.082031-1.1016-0.035156-1.5352 0.24219-1.293 0.82031-2.1797 2.3711-2.3711 4.1523-0.25391 2.3906 0.75781 4.8477 2.8555 6.9102 5.6914 5.6055 11.707 10.875 22.613 13.789 2.2773 1.7578 27.871 21.539 33.09 26.227-0.95312 1.1562-2.4805 3.3789-2.0156 5.3281 0.1875 0.78906 0.78125 1.8555 2.5391 2.4492 1.2773 0.42969 2.3516 0.64062 3.2891 0.64062 0.47266 0 0.89453-0.066406 1.2891-0.16406 1.9648 0.22266 6.8555 1.2969 8.1328 3.8828 1.9141 3.8828 5.7227 6.9727 5.8867 7.1016 0.18359 0.14844 0.40625 0.22266 0.625 0.22266 0.29297 0 0.58203-0.12891 0.78125-0.375 0.34766-0.42969 0.27734-1.0586-0.15234-1.4062-0.035157-0.027344-3.6211-2.9375-5.3438-6.4297-1.3164-2.6719-4.8477-3.9531-7.3125-4.5469 0.61328-0.61328 1.1836-1.3477 1.8047-2.1484l0.29688-0.38281c1.8594-2.3906 6.7031-10.945 8.8008-17.145 1.0273 1.8359 2.1875 2.8008 3.2383 3.6719 0.99609 0.82422 1.9375 1.6055 2.7734 3.1172 2.1641 3.9141 6.3633 9.2852 6.543 9.5117 0.19531 0.25 0.49219 0.38281 0.78906 0.38281 0.21484 0 0.43359-0.070313 0.61719-0.21484 0.42188-0.34375 0.5-0.96875 0.16016-1.4062zm-65.129-30.203c-10.559-2.7734-16.391-7.8867-21.918-13.328-1.6523-1.6289-2.4609-3.5-2.2695-5.2734 0.14844-1.3867 0.84766-2.293 1.3867-2.6445 0.33594-0.070312 1.4922 0.39063 2.3906 0.95313 0.40625 0.25391 0.9375 0.18359 1.2617-0.16406 0.32813-0.35156 0.35938-0.88281 0.078126-1.2695-2-2.7461-2.5547-5.1211-1.5625-6.6875 0.6875-1.0859 2.0352-1.5859 2.8945-1.4258 0.60547 0.11328 2.4414 1.3594 3.7891 2.4453 0.39453 0.31641 0.96094 0.29297 1.3242-0.058594 0.36328-0.35156 0.40625-0.91797 0.10156-1.3203-0.039062-0.050781-3.75-5.1133-1.1953-7.1602 2.5547-2.0547 4.9375 0.32813 5.1992 0.60547 0.32812 0.35547 0.85938 0.42188 1.2656 0.16406 0.40625-0.25781 0.57031-0.76953 0.39453-1.2148-0.39062-0.97656-1.2344-3.8711-0.47266-5.5117 0.25-0.53516 0.63672-0.87891 1.2266-1.0781 2.0586-0.69141 3.8359 1.6133 4.7695 3.1719l3.5117 9.5586c0.19141 0.51953 0.76562 0.78516 1.2812 0.59375 0.51953-0.19141 0.78516-0.76562 0.59375-1.2812l-2.8203-7.6797c0.058593-0.21094 0.066406-0.4375-0.027344-0.65625-0.023437-0.066407-0.14062-0.33984-0.34375-0.73438 1.1211-0.73437 2.0977-0.91797 2.9727-0.53125 4.4062 1.9453 6.1445 16.156 6.4414 21.469 0.007812 0.15234 0.050781 0.30078 0.125 0.43359 4.9219 8.7852 15.914 18.719 32.656 29.527l-9.4961 15.582c-5.9805-5.293-32.023-25.395-33.203-26.305-0.10547-0.085938-0.22656-0.14453-0.35547-0.17969zm40.625 31.055-0.30078 0.38672c-1.6562 2.1406-2.4609 3.0859-4.1289 3.0859-0.71484 0-1.582-0.17578-2.6484-0.53516-1.0781-0.36328-1.1953-0.85547-1.2344-1.0156-0.29297-1.2188 1.3398-3.375 2.1758-4.2266 0.054688-0.054687 0.10156-0.11328 0.14062-0.17969l10.625-17.434 0.003906-0.003906v-0.003907l1.4258-2.3398c0.35547-0.15625 1.0664-0.42578 1.7578-0.42578 0.44531 0 1.3789 0 1.543 1.9141 0.36719 4.2305-6.9727 17.703-9.3594 20.777z"/>
</svg>
