<?xml version="1.0" encoding="UTF-8"?>
<svg width="100pt" height="100pt" version="1.1" viewBox="0 0 100 100" xmlns="http://www.w3.org/2000/svg">
 <path d="m95.047 89.961c-0.074219-0.16016-1.8945-3.9727-4.8281-6.4922-2.8203-2.4219-3.3516-4.1523-3.3164-4.6172 0.066406-0.89453-0.35156-1.793-0.69141-2.3672 0.375-0.83984 0.54297-1.9375 0.42969-3.4453-0.14844-2.0156-1.4258-3.1719-3.5039-3.1719-0.25391 0-0.51172 0.023437-0.76562 0.050781-3.6367-3.7578-23.082-24.434-25.594-27.105-0.19922-9.3125-4.7031-17.328-8.8984-21.758-1.4961-1.582-3.043-2.2461-4.6016-1.9688-1.9609 0.34766-3.3125 2.1484-3.9766 3.2695-1.3984-0.53516-2.6914-0.54688-3.8516-0.035157-1.0742 0.47266-1.8281 1.3242-2.3398 2.1328-1.9844-3.5898-4.9141-7.6836-7.543-11.363-1.2734-1.7773-2.4766-3.4609-3.4883-4.9688-2.1016-3.1211-3.8789-3.25-5-2.8086-1.6797 0.66406-2.4922 3.0391-2.1992 4.8438 0.35156 2.1602 2.8203 5.7852 5.6758 9.9805 0.76562 1.125 1.5547 2.2812 2.3164 3.4375 1.1836 1.7891 2.3359 3.332 3.2656 4.5703 0.24219 0.32812 0.49609 0.66406 0.73828 0.99219-1.9727-1.1133-4.9375-2.9688-7.3125-4.4531-1.957-1.2227-3.9805-2.4883-5.6055-3.4531-3.2422-1.9297-5.5703-2.457-7.125-1.6211-0.93359 0.50391-1.4766 1.4766-1.5352 2.7422-0.14062 3.0547 4.6797 6.6055 6.7617 7.9883 2.4219 1.6094 7.5312 4.7109 11.855 7.3047-1.0039-0.074219-1.8945 0.03125-2.5195 0.41797-0.64844 0.39844-1.0234 1.0625-1.0508 1.8672-0.11719 3.4531 2.8789 6.2734 8.9102 8.3828 3.7695 1.3164 7.5039 1.9219 8.4141 2.0586 8.0859 4.8477 14.371 15.391 18.969 23.105 0.54688 0.91797 1.0703 1.793 1.582 2.6367-0.51562 0.66406-1.1641 1.7773-0.92578 3.0039 0.21094 1.0625 1.0117 1.8867 2.3711 2.4531 0.38672 0.99609 1.6367 1.9023 3.0391 2.9102 0.71875 0.51953 1.4648 1.0547 1.7734 1.4062 1.3281 1.5234 3.5781 7.2266 4.332 9.293 0.14844 0.40625 0.53125 0.65625 0.9375 0.65625 0.11328 0 0.23047-0.019532 0.34375-0.0625 0.51953-0.1875 0.78516-0.76172 0.59766-1.2812-0.28906-0.79688-2.8906-7.8398-4.7031-9.9219-0.46094-0.53125-1.2656-1.1055-2.1133-1.7188-0.26172-0.1875-0.60547-0.43359-0.94531-0.69141 0.375 0.019532 0.76562 0.03125 1.1914 0.03125 5.6992 0 14.531-1.6445 17.145-2.5312l0.39844-0.13672c1.1836-0.39844 2.2617-0.76953 3.1172-1.3633 0.070312 0.19922 0.125 0.39062 0.11328 0.53906-0.125 1.6758 1.3711 4.0234 4.0078 6.2852 2.6055 2.2344 4.3086 5.793 4.3242 5.8281 0.17188 0.35938 0.53125 0.57422 0.90625 0.57422 0.14453 0 0.28906-0.03125 0.42578-0.097657 0.51172-0.23437 0.72656-0.82812 0.49219-1.3281zm-56.52-41.41c-0.11328-0.066406-0.24219-0.10938-0.37109-0.12891-4.4531-0.60547-15.977-3.3008-15.805-8.4219 0.007813-0.17578 0.050782-0.19922 0.097657-0.23047 1.0234-0.62891 5.3789 0.64844 8.8008 2.2344 0.48438 0.22266 1.0586 0.03125 1.3047-0.44141 0.24609-0.47266 0.082031-1.0547-0.37891-1.3242-0.14453-0.085937-14.438-8.5195-19.004-11.559-3.5195-2.3398-5.9336-4.9023-5.8711-6.2305 0.023438-0.55469 0.1875-0.91406 0.48828-1.0742 0.30469-0.16797 1.5898-0.54297 5.1523 1.5781 1.6055 0.95312 3.6172 2.2148 5.5664 3.4336 9.1523 5.7266 10.043 6.0938 10.93 5.5664 0.30469-0.17969 0.51172-0.47266 0.58203-0.82422 0.17969-0.89453-0.53906-1.8555-2.2734-4.1758-0.91016-1.2188-2.0469-2.7344-3.1992-4.4766-0.76953-1.1641-1.5625-2.3281-2.332-3.4609-2.4961-3.6641-5.0742-7.4531-5.3555-9.1758-0.16797-1.043 0.32422-2.4102 0.96094-2.6602 0.46484-0.1875 1.3906 0.26172 2.6055 2.0625 1.0312 1.5312 2.2422 3.2227 3.5234 5.0156 3.0508 4.2617 6.5039 9.0898 8.3242 12.914 0.17969 0.37891 0.57422 0.60547 0.99609 0.56641 0.41797-0.039062 0.76562-0.33594 0.875-0.73828 0.007813-0.019531 0.59766-2.1797 2.1328-2.8477 0.82031-0.35938 1.8359-0.22656 3.0156 0.39453 0.24609 0.12891 0.53516 0.15234 0.80078 0.058594 0.26172-0.09375 0.47656-0.28906 0.58594-0.54688 0.30078-0.69531 1.4883-2.7383 2.9609-3 0.85547-0.14453 1.793 0.3125 2.8008 1.375 3.9922 4.2148 8.2812 11.895 8.3555 20.797 0.003906 0.25 0.097656 0.49219 0.26953 0.67578 0.875 0.92969 19.691 20.949 25.07 26.566-0.41016 0.14453-0.73047 0.28125-0.88672 0.35156l-19.301 4.2656c-0.51172-0.84375-1.0352-1.7188-1.582-2.6367-4.7383-7.9492-11.23-18.84-19.84-23.902zm42.508 29.082-0.40234 0.13672c-2.4414 0.82812-11.09 2.4258-16.5 2.4258-2.0547 0-3.0703-0.22656-3.5625-0.41406-0.53906-0.21094-1.2031-0.55859-1.3047-1.043-0.10156-0.50781 0.35938-1.2031 0.71094-1.6016l19.797-4.3828c0.074218-0.015625 0.14453-0.039062 0.21094-0.074218 0.019531-0.007813 1.7266-0.80859 3.1523-0.80859 1.1758 0 1.4453 0.50391 1.5078 1.3203 0.10156 1.3633-0.011719 2.1914-0.40625 2.7734-0.019531 0.03125-0.050781 0.054687-0.066406 0.085937-0.53906 0.69922-1.5312 1.0391-3.1367 1.582z"/>
</svg>
